<svg width="50" height="50" viewBox="0 0 50 50" fill="none" xmlns="http://www.w3.org/2000/svg">
<circle cx="25" cy="25" r="25" fill="#D9D9D9"/>
<path d="M30.368 17.3982H32.0227C33.1171 17.3982 34.1117 17.8641 34.8322 18.6142C35.5525 19.3643 36 20.4003 36 21.5396V30.8585C36 31.9981 35.5526 33.0338 34.8323 33.7839C34.1119 34.5341 33.1171 35 32.0227 35H17.9773C16.8829 35 15.8883 34.5341 15.1679 33.7839C14.4475 33.0338 14 31.9981 14 30.8585V21.5396C14 20.4 14.4475 19.3642 15.1679 18.6141C15.8883 17.8639 16.8829 17.3982 17.9773 17.3982H19.6321C19.7885 16.8706 20.094 16.4065 20.4698 16.0312C21.1088 15.3929 21.9859 15 22.6651 15H27.3348C28.014 15 28.8912 15.3929 29.5301 16.0312C29.9058 16.4065 30.2113 16.8706 30.3679 17.3982H30.368ZM25 21.1515C26.3383 21.1515 27.5504 21.7167 28.4276 22.63C29.3048 23.5435 29.8475 24.8056 29.8475 26.1992C29.8475 27.5927 29.3048 28.8548 28.4276 29.7683C27.5502 30.6816 26.3385 31.2468 25 31.2468C23.6615 31.2468 22.4498 30.6816 21.5724 29.7683C20.6953 28.8547 20.1526 27.5928 20.1526 26.1992C20.1526 24.8055 20.6953 23.5436 21.5724 22.63C22.4496 21.7167 23.6617 21.1515 25 21.1515ZM27.3732 23.7281C26.766 23.0958 25.9269 22.7048 25 22.7048C24.0732 22.7048 23.234 23.0958 22.6268 23.7281C22.0199 24.3603 21.6442 25.2341 21.6442 26.1992C21.6442 27.1642 22.0199 28.0381 22.6268 28.6703C23.234 29.3024 24.0732 29.6936 25 29.6936C25.9267 29.6936 26.766 29.3024 27.3732 28.6703C27.9803 28.0381 28.3558 27.1643 28.3558 26.1992C28.3558 25.234 27.9803 24.3603 27.3732 23.7281ZM32.0227 18.9514H29.7355C29.3237 18.9514 28.9898 18.6037 28.9898 18.1749C28.9898 17.7915 28.7831 17.4312 28.4988 17.1475C28.1308 16.7797 27.6673 16.5533 27.3349 16.5533H22.6652C22.3328 16.5533 21.8693 16.7797 21.5013 17.1475C21.217 17.4313 21.0103 17.7915 21.0103 18.1749C21.0103 18.6037 20.6764 18.9514 20.2646 18.9514H17.9774C17.2945 18.9514 16.6731 19.2429 16.2224 19.7122C15.7718 20.1815 15.4917 20.8286 15.4917 21.5397V30.8586C15.4917 31.5695 15.7718 32.2168 16.2224 32.686C16.6732 33.1553 17.2946 33.4469 17.9774 33.4469H32.0228C32.7057 33.4469 33.3273 33.1553 33.7779 32.686C34.2286 32.2167 34.5085 31.5697 34.5085 30.8586V21.5397C34.5085 20.8288 34.2285 20.1815 33.7778 19.7124C33.327 19.243 32.7056 18.9514 32.0228 18.9514H32.0227Z" fill="white"/>
</svg>
