<svg width="15" height="18" viewBox="0 0 15 18" fill="none" xmlns="http://www.w3.org/2000/svg">
<path d="M10 5.14286V0.401786C10.1432 0.495536 10.2604 0.589286 10.3516 0.683036L14.3359 4.78125C14.4271 4.875 14.5182 4.99554 14.6094 5.14286H10ZM8.75 5.46429C8.75 5.73214 8.84115 5.95982 9.02344 6.14732C9.20573 6.33482 9.42708 6.42857 9.6875 6.42857H15V17.0357C15 17.3036 14.9089 17.5312 14.7266 17.7188C14.5443 17.9062 14.3229 18 14.0625 18H0.9375C0.677083 18 0.455729 17.9062 0.273438 17.7188C0.0911458 17.5312 0 17.3036 0 17.0357V0.964286C0 0.696429 0.0911458 0.46875 0.273438 0.28125C0.455729 0.09375 0.677083 0 0.9375 0H8.75V5.46429Z" fill="#008FCE"/>
</svg>
