<svg width="670" height="194" viewBox="0 0 670 194" fill="none" xmlns="http://www.w3.org/2000/svg">
<path d="M35.5 147H667" stroke="#E7E7E7"/>
<path d="M35.5 121H667" stroke="#E7E7E7"/>
<path d="M35.5 95H667" stroke="#E7E7E7"/>
<path d="M35.5 69H667" stroke="#E7E7E7"/>
<path d="M35.5 45H667" stroke="#E7E7E7"/>
<path d="M35.5 17H667" stroke="#E7E7E7"/>
<path opacity="0.8" d="M55.4018 190.144C54.8818 190.144 54.4338 190.048 54.0578 189.856C53.6818 189.656 53.3898 189.368 53.1818 188.992C52.9738 188.616 52.8698 188.168 52.8698 187.648H54.0818C54.0818 187.92 54.1258 188.164 54.2138 188.38C54.3018 188.596 54.4378 188.768 54.6218 188.896C54.8138 189.016 55.0658 189.076 55.3778 189.076C55.6818 189.076 55.9258 189.016 56.1098 188.896C56.2938 188.776 56.4258 188.616 56.5058 188.416C56.5858 188.208 56.6258 187.972 56.6258 187.708V181.6H57.8258V187.708C57.8258 188.484 57.6098 189.084 57.1778 189.508C56.7458 189.932 56.1538 190.144 55.4018 190.144ZM61.529 190.144C61.041 190.144 60.633 190.06 60.305 189.892C59.985 189.716 59.745 189.484 59.585 189.196C59.425 188.908 59.345 188.596 59.345 188.26C59.345 187.86 59.445 187.516 59.645 187.228C59.853 186.94 60.149 186.72 60.533 186.568C60.917 186.416 61.377 186.34 61.913 186.34H63.473C63.473 185.972 63.425 185.668 63.329 185.428C63.233 185.188 63.081 185.008 62.873 184.888C62.673 184.768 62.413 184.708 62.093 184.708C61.741 184.708 61.441 184.792 61.193 184.96C60.945 185.128 60.789 185.376 60.725 185.704H59.525C59.573 185.28 59.717 184.92 59.957 184.624C60.197 184.328 60.501 184.1 60.869 183.94C61.245 183.78 61.653 183.7 62.093 183.7C62.661 183.7 63.133 183.8 63.509 184C63.893 184.2 64.181 184.484 64.373 184.852C64.573 185.212 64.673 185.644 64.673 186.148V190H63.617L63.521 188.968C63.441 189.136 63.337 189.292 63.209 189.436C63.089 189.572 62.945 189.696 62.777 189.808C62.617 189.912 62.433 189.992 62.225 190.048C62.017 190.112 61.785 190.144 61.529 190.144ZM61.757 189.172C62.005 189.172 62.233 189.12 62.441 189.016C62.649 188.904 62.825 188.76 62.969 188.584C63.121 188.4 63.237 188.196 63.317 187.972C63.397 187.74 63.441 187.496 63.449 187.24V187.18H62.033C61.689 187.18 61.413 187.224 61.205 187.312C60.997 187.4 60.845 187.52 60.749 187.672C60.653 187.816 60.605 187.984 60.605 188.176C60.605 188.376 60.649 188.552 60.737 188.704C60.825 188.848 60.957 188.964 61.133 189.052C61.309 189.132 61.517 189.172 61.757 189.172ZM66.2518 190V183.844H67.3318L67.4038 184.852C67.5878 184.5 67.8518 184.22 68.1958 184.012C68.5478 183.804 68.9558 183.7 69.4198 183.7C69.8918 183.7 70.2998 183.796 70.6438 183.988C70.9878 184.172 71.2558 184.456 71.4478 184.84C71.6398 185.216 71.7358 185.688 71.7358 186.256V190H70.5358V186.376C70.5358 185.832 70.4078 185.424 70.1518 185.152C69.9038 184.872 69.5518 184.732 69.0958 184.732C68.7918 184.732 68.5118 184.804 68.2558 184.948C68.0078 185.092 67.8118 185.304 67.6678 185.584C67.5238 185.856 67.4518 186.192 67.4518 186.592V190H66.2518Z" fill="#202224"/>
<path opacity="0.8" d="M13.3615 150.108C12.9355 150.108 12.5635 150.033 12.2455 149.883C11.9335 149.727 11.6875 149.52 11.5075 149.262C11.3335 149.004 11.2285 148.707 11.1925 148.371H12.0655C12.1255 148.653 12.2665 148.887 12.4885 149.073C12.7105 149.253 13.0045 149.343 13.3705 149.343C13.6405 149.343 13.8715 149.28 14.0635 149.154C14.2555 149.028 14.4025 148.857 14.5045 148.641C14.6125 148.419 14.6665 148.17 14.6665 147.894C14.6665 147.618 14.6125 147.378 14.5045 147.174C14.4025 146.964 14.2585 146.802 14.0725 146.688C13.8865 146.568 13.6675 146.508 13.4155 146.508C13.1095 146.508 12.8515 146.571 12.6415 146.697C12.4315 146.817 12.2665 146.964 12.1465 147.138H11.2645L11.7415 143.7H15.1885V144.483H12.4255L12.1285 146.292C12.2725 146.136 12.4645 146.01 12.7045 145.914C12.9445 145.812 13.2205 145.761 13.5325 145.761C13.8505 145.761 14.1325 145.818 14.3785 145.932C14.6245 146.04 14.8345 146.193 15.0085 146.391C15.1825 146.583 15.3115 146.808 15.3955 147.066C15.4855 147.324 15.5305 147.597 15.5305 147.885C15.5305 148.197 15.4795 148.488 15.3775 148.758C15.2755 149.022 15.1285 149.256 14.9365 149.46C14.7505 149.664 14.5255 149.823 14.2615 149.937C13.9975 150.051 13.6975 150.108 13.3615 150.108ZM19.0525 150.108C18.5245 150.108 18.0715 149.973 17.6935 149.703C17.3155 149.427 17.0215 149.046 16.8115 148.56C16.6075 148.068 16.5055 147.498 16.5055 146.85C16.5055 146.202 16.6075 145.635 16.8115 145.149C17.0215 144.657 17.3155 144.276 17.6935 144.006C18.0715 143.73 18.5245 143.592 19.0525 143.592C19.5865 143.592 20.0395 143.73 20.4115 144.006C20.7895 144.276 21.0805 144.657 21.2845 145.149C21.4885 145.635 21.5905 146.202 21.5905 146.85C21.5905 147.498 21.4885 148.068 21.2845 148.56C21.0805 149.046 20.7895 149.427 20.4115 149.703C20.0395 149.973 19.5865 150.108 19.0525 150.108ZM19.0525 149.307C19.3645 149.307 19.6405 149.208 19.8805 149.01C20.1265 148.812 20.3185 148.53 20.4565 148.164C20.6005 147.798 20.6725 147.36 20.6725 146.85C20.6725 146.334 20.6005 145.896 20.4565 145.536C20.3185 145.17 20.1265 144.891 19.8805 144.699C19.6405 144.501 19.3645 144.402 19.0525 144.402C18.7405 144.402 18.4585 144.501 18.2065 144.699C17.9605 144.891 17.7685 145.17 17.6305 145.536C17.4925 145.896 17.4235 146.334 17.4235 146.85C17.4235 147.36 17.4925 147.798 17.6305 148.164C17.7685 148.53 17.9605 148.812 18.2065 149.01C18.4585 149.208 18.7405 149.307 19.0525 149.307ZM25.0202 150.108C24.4922 150.108 24.0392 149.973 23.6612 149.703C23.2832 149.427 22.9892 149.046 22.7792 148.56C22.5752 148.068 22.4732 147.498 22.4732 146.85C22.4732 146.202 22.5752 145.635 22.7792 145.149C22.9892 144.657 23.2832 144.276 23.6612 144.006C24.0392 143.73 24.4922 143.592 25.0202 143.592C25.5542 143.592 26.0072 143.73 26.3792 144.006C26.7572 144.276 27.0482 144.657 27.2522 145.149C27.4562 145.635 27.5582 146.202 27.5582 146.85C27.5582 147.498 27.4562 148.068 27.2522 148.56C27.0482 149.046 26.7572 149.427 26.3792 149.703C26.0072 149.973 25.5542 150.108 25.0202 150.108ZM25.0202 149.307C25.3322 149.307 25.6082 149.208 25.8482 149.01C26.0942 148.812 26.2862 148.53 26.4242 148.164C26.5682 147.798 26.6402 147.36 26.6402 146.85C26.6402 146.334 26.5682 145.896 26.4242 145.536C26.2862 145.17 26.0942 144.891 25.8482 144.699C25.6082 144.501 25.3322 144.402 25.0202 144.402C24.7082 144.402 24.4262 144.501 24.1742 144.699C23.9282 144.891 23.7362 145.17 23.5982 145.536C23.4602 145.896 23.3912 146.334 23.3912 146.85C23.3912 147.36 23.4602 147.798 23.5982 148.164C23.7362 148.53 23.9282 148.812 24.1742 149.01C24.4262 149.208 24.7082 149.307 25.0202 149.307Z" fill="#202224"/>
<path opacity="0.8" d="M8.95734 98V92.717L7.65234 93.149V92.411L9.29034 91.7H9.87534V98H8.95734ZM13.3615 98.108C12.9355 98.108 12.5635 98.033 12.2455 97.883C11.9335 97.727 11.6875 97.52 11.5075 97.262C11.3335 97.004 11.2285 96.707 11.1925 96.371H12.0655C12.1255 96.653 12.2665 96.887 12.4885 97.073C12.7105 97.253 13.0045 97.343 13.3705 97.343C13.6405 97.343 13.8715 97.28 14.0635 97.154C14.2555 97.028 14.4025 96.857 14.5045 96.641C14.6125 96.419 14.6665 96.17 14.6665 95.894C14.6665 95.618 14.6125 95.378 14.5045 95.174C14.4025 94.964 14.2585 94.802 14.0725 94.688C13.8865 94.568 13.6675 94.508 13.4155 94.508C13.1095 94.508 12.8515 94.571 12.6415 94.697C12.4315 94.817 12.2665 94.964 12.1465 95.138H11.2645L11.7415 91.7H15.1885V92.483H12.4255L12.1285 94.292C12.2725 94.136 12.4645 94.01 12.7045 93.914C12.9445 93.812 13.2205 93.761 13.5325 93.761C13.8505 93.761 14.1325 93.818 14.3785 93.932C14.6245 94.04 14.8345 94.193 15.0085 94.391C15.1825 94.583 15.3115 94.808 15.3955 95.066C15.4855 95.324 15.5305 95.597 15.5305 95.885C15.5305 96.197 15.4795 96.488 15.3775 96.758C15.2755 97.022 15.1285 97.256 14.9365 97.46C14.7505 97.664 14.5255 97.823 14.2615 97.937C13.9975 98.051 13.6975 98.108 13.3615 98.108ZM19.0525 98.108C18.5245 98.108 18.0715 97.973 17.6935 97.703C17.3155 97.427 17.0215 97.046 16.8115 96.56C16.6075 96.068 16.5055 95.498 16.5055 94.85C16.5055 94.202 16.6075 93.635 16.8115 93.149C17.0215 92.657 17.3155 92.276 17.6935 92.006C18.0715 91.73 18.5245 91.592 19.0525 91.592C19.5865 91.592 20.0395 91.73 20.4115 92.006C20.7895 92.276 21.0805 92.657 21.2845 93.149C21.4885 93.635 21.5905 94.202 21.5905 94.85C21.5905 95.498 21.4885 96.068 21.2845 96.56C21.0805 97.046 20.7895 97.427 20.4115 97.703C20.0395 97.973 19.5865 98.108 19.0525 98.108ZM19.0525 97.307C19.3645 97.307 19.6405 97.208 19.8805 97.01C20.1265 96.812 20.3185 96.53 20.4565 96.164C20.6005 95.798 20.6725 95.36 20.6725 94.85C20.6725 94.334 20.6005 93.896 20.4565 93.536C20.3185 93.17 20.1265 92.891 19.8805 92.699C19.6405 92.501 19.3645 92.402 19.0525 92.402C18.7405 92.402 18.4585 92.501 18.2065 92.699C17.9605 92.891 17.7685 93.17 17.6305 93.536C17.4925 93.896 17.4235 94.334 17.4235 94.85C17.4235 95.36 17.4925 95.798 17.6305 96.164C17.7685 96.53 17.9605 96.812 18.2065 97.01C18.4585 97.208 18.7405 97.307 19.0525 97.307ZM25.0202 98.108C24.4922 98.108 24.0392 97.973 23.6612 97.703C23.2832 97.427 22.9892 97.046 22.7792 96.56C22.5752 96.068 22.4732 95.498 22.4732 94.85C22.4732 94.202 22.5752 93.635 22.7792 93.149C22.9892 92.657 23.2832 92.276 23.6612 92.006C24.0392 91.73 24.4922 91.592 25.0202 91.592C25.5542 91.592 26.0072 91.73 26.3792 92.006C26.7572 92.276 27.0482 92.657 27.2522 93.149C27.4562 93.635 27.5582 94.202 27.5582 94.85C27.5582 95.498 27.4562 96.068 27.2522 96.56C27.0482 97.046 26.7572 97.427 26.3792 97.703C26.0072 97.973 25.5542 98.108 25.0202 98.108ZM25.0202 97.307C25.3322 97.307 25.6082 97.208 25.8482 97.01C26.0942 96.812 26.2862 96.53 26.4242 96.164C26.5682 95.798 26.6402 95.36 26.6402 94.85C26.6402 94.334 26.5682 93.896 26.4242 93.536C26.2862 93.17 26.0942 92.891 25.8482 92.699C25.6082 92.501 25.3322 92.402 25.0202 92.402C24.7082 92.402 24.4262 92.501 24.1742 92.699C23.9282 92.891 23.7362 93.17 23.5982 93.536C23.4602 93.896 23.3912 94.334 23.3912 94.85C23.3912 95.36 23.4602 95.798 23.5982 96.164C23.7362 96.53 23.9282 96.812 24.1742 97.01C24.4262 97.208 24.7082 97.307 25.0202 97.307Z" fill="#202224"/>
<path opacity="0.8" d="M5.80312 46V45.352C6.22912 45.028 6.63712 44.701 7.02712 44.371C7.41712 44.041 7.76212 43.714 8.06212 43.39C8.36812 43.06 8.60512 42.739 8.77312 42.427C8.94712 42.109 9.03412 41.806 9.03412 41.518C9.03412 41.314 8.99512 41.125 8.91712 40.951C8.84512 40.777 8.72512 40.636 8.55712 40.528C8.39512 40.414 8.17612 40.357 7.90012 40.357C7.63612 40.357 7.41412 40.414 7.23412 40.528C7.06012 40.642 6.92812 40.795 6.83812 40.987C6.74812 41.173 6.70312 41.38 6.70312 41.608H5.83912C5.84512 41.176 5.93812 40.81 6.11812 40.51C6.29812 40.21 6.54412 39.982 6.85612 39.826C7.17412 39.67 7.52812 39.592 7.91812 39.592C8.32612 39.592 8.68012 39.667 8.98012 39.817C9.28012 39.961 9.51412 40.174 9.68212 40.456C9.85012 40.738 9.93412 41.077 9.93412 41.473C9.93412 41.761 9.87412 42.049 9.75412 42.337C9.64012 42.619 9.48112 42.895 9.27712 43.165C9.07912 43.435 8.85712 43.696 8.61112 43.948C8.36512 44.194 8.11012 44.428 7.84612 44.65C7.58812 44.872 7.33912 45.073 7.09912 45.253H10.1321V46H5.80312ZM13.3615 46.108C12.9355 46.108 12.5635 46.033 12.2455 45.883C11.9335 45.727 11.6875 45.52 11.5075 45.262C11.3335 45.004 11.2285 44.707 11.1925 44.371H12.0655C12.1255 44.653 12.2665 44.887 12.4885 45.073C12.7105 45.253 13.0045 45.343 13.3705 45.343C13.6405 45.343 13.8715 45.28 14.0635 45.154C14.2555 45.028 14.4025 44.857 14.5045 44.641C14.6125 44.419 14.6665 44.17 14.6665 43.894C14.6665 43.618 14.6125 43.378 14.5045 43.174C14.4025 42.964 14.2585 42.802 14.0725 42.688C13.8865 42.568 13.6675 42.508 13.4155 42.508C13.1095 42.508 12.8515 42.571 12.6415 42.697C12.4315 42.817 12.2665 42.964 12.1465 43.138H11.2645L11.7415 39.7H15.1885V40.483H12.4255L12.1285 42.292C12.2725 42.136 12.4645 42.01 12.7045 41.914C12.9445 41.812 13.2205 41.761 13.5325 41.761C13.8505 41.761 14.1325 41.818 14.3785 41.932C14.6245 42.04 14.8345 42.193 15.0085 42.391C15.1825 42.583 15.3115 42.808 15.3955 43.066C15.4855 43.324 15.5305 43.597 15.5305 43.885C15.5305 44.197 15.4795 44.488 15.3775 44.758C15.2755 45.022 15.1285 45.256 14.9365 45.46C14.7505 45.664 14.5255 45.823 14.2615 45.937C13.9975 46.051 13.6975 46.108 13.3615 46.108ZM19.0525 46.108C18.5245 46.108 18.0715 45.973 17.6935 45.703C17.3155 45.427 17.0215 45.046 16.8115 44.56C16.6075 44.068 16.5055 43.498 16.5055 42.85C16.5055 42.202 16.6075 41.635 16.8115 41.149C17.0215 40.657 17.3155 40.276 17.6935 40.006C18.0715 39.73 18.5245 39.592 19.0525 39.592C19.5865 39.592 20.0395 39.73 20.4115 40.006C20.7895 40.276 21.0805 40.657 21.2845 41.149C21.4885 41.635 21.5905 42.202 21.5905 42.85C21.5905 43.498 21.4885 44.068 21.2845 44.56C21.0805 45.046 20.7895 45.427 20.4115 45.703C20.0395 45.973 19.5865 46.108 19.0525 46.108ZM19.0525 45.307C19.3645 45.307 19.6405 45.208 19.8805 45.01C20.1265 44.812 20.3185 44.53 20.4565 44.164C20.6005 43.798 20.6725 43.36 20.6725 42.85C20.6725 42.334 20.6005 41.896 20.4565 41.536C20.3185 41.17 20.1265 40.891 19.8805 40.699C19.6405 40.501 19.3645 40.402 19.0525 40.402C18.7405 40.402 18.4585 40.501 18.2065 40.699C17.9605 40.891 17.7685 41.17 17.6305 41.536C17.4925 41.896 17.4235 42.334 17.4235 42.85C17.4235 43.36 17.4925 43.798 17.6305 44.164C17.7685 44.53 17.9605 44.812 18.2065 45.01C18.4585 45.208 18.7405 45.307 19.0525 45.307ZM25.0202 46.108C24.4922 46.108 24.0392 45.973 23.6612 45.703C23.2832 45.427 22.9892 45.046 22.7792 44.56C22.5752 44.068 22.4732 43.498 22.4732 42.85C22.4732 42.202 22.5752 41.635 22.7792 41.149C22.9892 40.657 23.2832 40.276 23.6612 40.006C24.0392 39.73 24.4922 39.592 25.0202 39.592C25.5542 39.592 26.0072 39.73 26.3792 40.006C26.7572 40.276 27.0482 40.657 27.2522 41.149C27.4562 41.635 27.5582 42.202 27.5582 42.85C27.5582 43.498 27.4562 44.068 27.2522 44.56C27.0482 45.046 26.7572 45.427 26.3792 45.703C26.0072 45.973 25.5542 46.108 25.0202 46.108ZM25.0202 45.307C25.3322 45.307 25.6082 45.208 25.8482 45.01C26.0942 44.812 26.2862 44.53 26.4242 44.164C26.5682 43.798 26.6402 43.36 26.6402 42.85C26.6402 42.334 26.5682 41.896 26.4242 41.536C26.2862 41.17 26.0942 40.891 25.8482 40.699C25.6082 40.501 25.3322 40.402 25.0202 40.402C24.7082 40.402 24.4262 40.501 24.1742 40.699C23.9282 40.891 23.7362 41.17 23.5982 41.536C23.4602 41.896 23.3912 42.334 23.3912 42.85C23.3912 43.36 23.4602 43.798 23.5982 44.164C23.7362 44.53 23.9282 44.812 24.1742 45.01C24.4262 45.208 24.7082 45.307 25.0202 45.307Z" fill="#202224"/>
<path opacity="0.8" d="M8.49152 124V118.717L7.18652 119.149V118.411L8.82452 117.7H9.40952V124H8.49152ZM13.0847 124.108C12.5567 124.108 12.1037 123.973 11.7257 123.703C11.3477 123.427 11.0537 123.046 10.8437 122.56C10.6397 122.068 10.5377 121.498 10.5377 120.85C10.5377 120.202 10.6397 119.635 10.8437 119.149C11.0537 118.657 11.3477 118.276 11.7257 118.006C12.1037 117.73 12.5567 117.592 13.0847 117.592C13.6187 117.592 14.0717 117.73 14.4437 118.006C14.8217 118.276 15.1127 118.657 15.3167 119.149C15.5207 119.635 15.6227 120.202 15.6227 120.85C15.6227 121.498 15.5207 122.068 15.3167 122.56C15.1127 123.046 14.8217 123.427 14.4437 123.703C14.0717 123.973 13.6187 124.108 13.0847 124.108ZM13.0847 123.307C13.3967 123.307 13.6727 123.208 13.9127 123.01C14.1587 122.812 14.3507 122.53 14.4887 122.164C14.6327 121.798 14.7047 121.36 14.7047 120.85C14.7047 120.334 14.6327 119.896 14.4887 119.536C14.3507 119.17 14.1587 118.891 13.9127 118.699C13.6727 118.501 13.3967 118.402 13.0847 118.402C12.7727 118.402 12.4907 118.501 12.2387 118.699C11.9927 118.891 11.8007 119.17 11.6627 119.536C11.5247 119.896 11.4557 120.334 11.4557 120.85C11.4557 121.36 11.5247 121.798 11.6627 122.164C11.8007 122.53 11.9927 122.812 12.2387 123.01C12.4907 123.208 12.7727 123.307 13.0847 123.307ZM19.0525 124.108C18.5245 124.108 18.0715 123.973 17.6935 123.703C17.3155 123.427 17.0215 123.046 16.8115 122.56C16.6075 122.068 16.5055 121.498 16.5055 120.85C16.5055 120.202 16.6075 119.635 16.8115 119.149C17.0215 118.657 17.3155 118.276 17.6935 118.006C18.0715 117.73 18.5245 117.592 19.0525 117.592C19.5865 117.592 20.0395 117.73 20.4115 118.006C20.7895 118.276 21.0805 118.657 21.2845 119.149C21.4885 119.635 21.5905 120.202 21.5905 120.85C21.5905 121.498 21.4885 122.068 21.2845 122.56C21.0805 123.046 20.7895 123.427 20.4115 123.703C20.0395 123.973 19.5865 124.108 19.0525 124.108ZM19.0525 123.307C19.3645 123.307 19.6405 123.208 19.8805 123.01C20.1265 122.812 20.3185 122.53 20.4565 122.164C20.6005 121.798 20.6725 121.36 20.6725 120.85C20.6725 120.334 20.6005 119.896 20.4565 119.536C20.3185 119.17 20.1265 118.891 19.8805 118.699C19.6405 118.501 19.3645 118.402 19.0525 118.402C18.7405 118.402 18.4585 118.501 18.2065 118.699C17.9605 118.891 17.7685 119.17 17.6305 119.536C17.4925 119.896 17.4235 120.334 17.4235 120.85C17.4235 121.36 17.4925 121.798 17.6305 122.164C17.7685 122.53 17.9605 122.812 18.2065 123.01C18.4585 123.208 18.7405 123.307 19.0525 123.307ZM25.0202 124.108C24.4922 124.108 24.0392 123.973 23.6612 123.703C23.2832 123.427 22.9892 123.046 22.7792 122.56C22.5752 122.068 22.4732 121.498 22.4732 120.85C22.4732 120.202 22.5752 119.635 22.7792 119.149C22.9892 118.657 23.2832 118.276 23.6612 118.006C24.0392 117.73 24.4922 117.592 25.0202 117.592C25.5542 117.592 26.0072 117.73 26.3792 118.006C26.7572 118.276 27.0482 118.657 27.2522 119.149C27.4562 119.635 27.5582 120.202 27.5582 120.85C27.5582 121.498 27.4562 122.068 27.2522 122.56C27.0482 123.046 26.7572 123.427 26.3792 123.703C26.0072 123.973 25.5542 124.108 25.0202 124.108ZM25.0202 123.307C25.3322 123.307 25.6082 123.208 25.8482 123.01C26.0942 122.812 26.2862 122.53 26.4242 122.164C26.5682 121.798 26.6402 121.36 26.6402 120.85C26.6402 120.334 26.5682 119.896 26.4242 119.536C26.2862 119.17 26.0942 118.891 25.8482 118.699C25.6082 118.501 25.3322 118.402 25.0202 118.402C24.7082 118.402 24.4262 118.501 24.1742 118.699C23.9282 118.891 23.7362 119.17 23.5982 119.536C23.4602 119.896 23.3912 120.334 23.3912 120.85C23.3912 121.36 23.4602 121.798 23.5982 122.164C23.7362 122.53 23.9282 122.812 24.1742 123.01C24.4262 123.208 24.7082 123.307 25.0202 123.307Z" fill="#202224"/>
<path opacity="0.8" d="M5.40761 72V71.352C5.83361 71.028 6.24161 70.701 6.63161 70.371C7.02161 70.041 7.36661 69.714 7.66661 69.39C7.97261 69.06 8.20961 68.739 8.37761 68.427C8.55161 68.109 8.63861 67.806 8.63861 67.518C8.63861 67.314 8.59961 67.125 8.52161 66.951C8.44961 66.777 8.32961 66.636 8.16161 66.528C7.99961 66.414 7.78061 66.357 7.50461 66.357C7.24061 66.357 7.01861 66.414 6.83861 66.528C6.66461 66.642 6.53261 66.795 6.44261 66.987C6.35261 67.173 6.30761 67.38 6.30761 67.608H5.44361C5.44961 67.176 5.54261 66.81 5.72261 66.51C5.90261 66.21 6.14861 65.982 6.46061 65.826C6.77861 65.67 7.13261 65.592 7.52261 65.592C7.93061 65.592 8.28461 65.667 8.58461 65.817C8.88461 65.961 9.11861 66.174 9.28661 66.456C9.45461 66.738 9.53861 67.077 9.53861 67.473C9.53861 67.761 9.47861 68.049 9.35861 68.337C9.24461 68.619 9.08561 68.895 8.88161 69.165C8.68361 69.435 8.46161 69.696 8.21561 69.948C7.96961 70.194 7.71461 70.428 7.45061 70.65C7.19261 70.872 6.94361 71.073 6.70361 71.253H9.73661V72H5.40761ZM13.0847 72.108C12.5567 72.108 12.1037 71.973 11.7257 71.703C11.3477 71.427 11.0537 71.046 10.8437 70.56C10.6397 70.068 10.5377 69.498 10.5377 68.85C10.5377 68.202 10.6397 67.635 10.8437 67.149C11.0537 66.657 11.3477 66.276 11.7257 66.006C12.1037 65.73 12.5567 65.592 13.0847 65.592C13.6187 65.592 14.0717 65.73 14.4437 66.006C14.8217 66.276 15.1127 66.657 15.3167 67.149C15.5207 67.635 15.6227 68.202 15.6227 68.85C15.6227 69.498 15.5207 70.068 15.3167 70.56C15.1127 71.046 14.8217 71.427 14.4437 71.703C14.0717 71.973 13.6187 72.108 13.0847 72.108ZM13.0847 71.307C13.3967 71.307 13.6727 71.208 13.9127 71.01C14.1587 70.812 14.3507 70.53 14.4887 70.164C14.6327 69.798 14.7047 69.36 14.7047 68.85C14.7047 68.334 14.6327 67.896 14.4887 67.536C14.3507 67.17 14.1587 66.891 13.9127 66.699C13.6727 66.501 13.3967 66.402 13.0847 66.402C12.7727 66.402 12.4907 66.501 12.2387 66.699C11.9927 66.891 11.8007 67.17 11.6627 67.536C11.5247 67.896 11.4557 68.334 11.4557 68.85C11.4557 69.36 11.5247 69.798 11.6627 70.164C11.8007 70.53 11.9927 70.812 12.2387 71.01C12.4907 71.208 12.7727 71.307 13.0847 71.307ZM19.0525 72.108C18.5245 72.108 18.0715 71.973 17.6935 71.703C17.3155 71.427 17.0215 71.046 16.8115 70.56C16.6075 70.068 16.5055 69.498 16.5055 68.85C16.5055 68.202 16.6075 67.635 16.8115 67.149C17.0215 66.657 17.3155 66.276 17.6935 66.006C18.0715 65.73 18.5245 65.592 19.0525 65.592C19.5865 65.592 20.0395 65.73 20.4115 66.006C20.7895 66.276 21.0805 66.657 21.2845 67.149C21.4885 67.635 21.5905 68.202 21.5905 68.85C21.5905 69.498 21.4885 70.068 21.2845 70.56C21.0805 71.046 20.7895 71.427 20.4115 71.703C20.0395 71.973 19.5865 72.108 19.0525 72.108ZM19.0525 71.307C19.3645 71.307 19.6405 71.208 19.8805 71.01C20.1265 70.812 20.3185 70.53 20.4565 70.164C20.6005 69.798 20.6725 69.36 20.6725 68.85C20.6725 68.334 20.6005 67.896 20.4565 67.536C20.3185 67.17 20.1265 66.891 19.8805 66.699C19.6405 66.501 19.3645 66.402 19.0525 66.402C18.7405 66.402 18.4585 66.501 18.2065 66.699C17.9605 66.891 17.7685 67.17 17.6305 67.536C17.4925 67.896 17.4235 68.334 17.4235 68.85C17.4235 69.36 17.4925 69.798 17.6305 70.164C17.7685 70.53 17.9605 70.812 18.2065 71.01C18.4585 71.208 18.7405 71.307 19.0525 71.307ZM25.0202 72.108C24.4922 72.108 24.0392 71.973 23.6612 71.703C23.2832 71.427 22.9892 71.046 22.7792 70.56C22.5752 70.068 22.4732 69.498 22.4732 68.85C22.4732 68.202 22.5752 67.635 22.7792 67.149C22.9892 66.657 23.2832 66.276 23.6612 66.006C24.0392 65.73 24.4922 65.592 25.0202 65.592C25.5542 65.592 26.0072 65.73 26.3792 66.006C26.7572 66.276 27.0482 66.657 27.2522 67.149C27.4562 67.635 27.5582 68.202 27.5582 68.85C27.5582 69.498 27.4562 70.068 27.2522 70.56C27.0482 71.046 26.7572 71.427 26.3792 71.703C26.0072 71.973 25.5542 72.108 25.0202 72.108ZM25.0202 71.307C25.3322 71.307 25.6082 71.208 25.8482 71.01C26.0942 70.812 26.2862 70.53 26.4242 70.164C26.5682 69.798 26.6402 69.36 26.6402 68.85C26.6402 68.334 26.5682 67.896 26.4242 67.536C26.2862 67.17 26.0942 66.891 25.8482 66.699C25.6082 66.501 25.3322 66.402 25.0202 66.402C24.7082 66.402 24.4262 66.501 24.1742 66.699C23.9282 66.891 23.7362 67.17 23.5982 67.536C23.4602 67.896 23.3912 68.334 23.3912 68.85C23.3912 69.36 23.4602 69.798 23.5982 70.164C23.7362 70.53 23.9282 70.812 24.1742 71.01C24.4262 71.208 24.7082 71.307 25.0202 71.307Z" fill="#202224"/>
<path opacity="0.8" d="M7.36504 20.108C6.96304 20.108 6.59404 20.036 6.25804 19.892C5.92804 19.742 5.66404 19.52 5.46604 19.226C5.27404 18.926 5.17204 18.551 5.16004 18.101H6.06004C6.06604 18.329 6.12004 18.536 6.22204 18.722C6.32404 18.908 6.47104 19.058 6.66304 19.172C6.86104 19.28 7.09504 19.334 7.36504 19.334C7.63504 19.334 7.86004 19.283 8.04004 19.181C8.22604 19.079 8.36404 18.941 8.45404 18.767C8.55004 18.593 8.59804 18.398 8.59804 18.182C8.59804 17.924 8.53204 17.714 8.40004 17.552C8.27404 17.384 8.10004 17.261 7.87804 17.183C7.66204 17.099 7.41904 17.057 7.14904 17.057H6.68104V16.31H7.14904C7.53904 16.31 7.85104 16.22 8.08504 16.04C8.31904 15.86 8.43604 15.605 8.43604 15.275C8.43604 15.011 8.34304 14.795 8.15704 14.627C7.97704 14.453 7.71304 14.366 7.36504 14.366C7.00504 14.366 6.72304 14.462 6.51904 14.654C6.32104 14.846 6.21004 15.089 6.18604 15.383H5.28604C5.30404 15.029 5.40004 14.717 5.57404 14.447C5.75404 14.171 5.99404 13.961 6.29404 13.817C6.60004 13.667 6.95704 13.592 7.36504 13.592C7.79104 13.592 8.15104 13.667 8.44504 13.817C8.73904 13.961 8.96104 14.156 9.11104 14.402C9.26104 14.648 9.33604 14.918 9.33604 15.212C9.33604 15.44 9.29104 15.653 9.20104 15.851C9.11704 16.049 8.99404 16.217 8.83204 16.355C8.67004 16.493 8.47204 16.592 8.23804 16.652C8.47804 16.7 8.69104 16.793 8.87704 16.931C9.06904 17.069 9.21904 17.243 9.32704 17.453C9.44104 17.663 9.49804 17.909 9.49804 18.191C9.49804 18.533 9.41704 18.851 9.25504 19.145C9.09304 19.433 8.85304 19.667 8.53504 19.847C8.22304 20.021 7.83304 20.108 7.36504 20.108ZM13.0847 20.108C12.5567 20.108 12.1037 19.973 11.7257 19.703C11.3477 19.427 11.0537 19.046 10.8437 18.56C10.6397 18.068 10.5377 17.498 10.5377 16.85C10.5377 16.202 10.6397 15.635 10.8437 15.149C11.0537 14.657 11.3477 14.276 11.7257 14.006C12.1037 13.73 12.5567 13.592 13.0847 13.592C13.6187 13.592 14.0717 13.73 14.4437 14.006C14.8217 14.276 15.1127 14.657 15.3167 15.149C15.5207 15.635 15.6227 16.202 15.6227 16.85C15.6227 17.498 15.5207 18.068 15.3167 18.56C15.1127 19.046 14.8217 19.427 14.4437 19.703C14.0717 19.973 13.6187 20.108 13.0847 20.108ZM13.0847 19.307C13.3967 19.307 13.6727 19.208 13.9127 19.01C14.1587 18.812 14.3507 18.53 14.4887 18.164C14.6327 17.798 14.7047 17.36 14.7047 16.85C14.7047 16.334 14.6327 15.896 14.4887 15.536C14.3507 15.17 14.1587 14.891 13.9127 14.699C13.6727 14.501 13.3967 14.402 13.0847 14.402C12.7727 14.402 12.4907 14.501 12.2387 14.699C11.9927 14.891 11.8007 15.17 11.6627 15.536C11.5247 15.896 11.4557 16.334 11.4557 16.85C11.4557 17.36 11.5247 17.798 11.6627 18.164C11.8007 18.53 11.9927 18.812 12.2387 19.01C12.4907 19.208 12.7727 19.307 13.0847 19.307ZM19.0525 20.108C18.5245 20.108 18.0715 19.973 17.6935 19.703C17.3155 19.427 17.0215 19.046 16.8115 18.56C16.6075 18.068 16.5055 17.498 16.5055 16.85C16.5055 16.202 16.6075 15.635 16.8115 15.149C17.0215 14.657 17.3155 14.276 17.6935 14.006C18.0715 13.73 18.5245 13.592 19.0525 13.592C19.5865 13.592 20.0395 13.73 20.4115 14.006C20.7895 14.276 21.0805 14.657 21.2845 15.149C21.4885 15.635 21.5905 16.202 21.5905 16.85C21.5905 17.498 21.4885 18.068 21.2845 18.56C21.0805 19.046 20.7895 19.427 20.4115 19.703C20.0395 19.973 19.5865 20.108 19.0525 20.108ZM19.0525 19.307C19.3645 19.307 19.6405 19.208 19.8805 19.01C20.1265 18.812 20.3185 18.53 20.4565 18.164C20.6005 17.798 20.6725 17.36 20.6725 16.85C20.6725 16.334 20.6005 15.896 20.4565 15.536C20.3185 15.17 20.1265 14.891 19.8805 14.699C19.6405 14.501 19.3645 14.402 19.0525 14.402C18.7405 14.402 18.4585 14.501 18.2065 14.699C17.9605 14.891 17.7685 15.17 17.6305 15.536C17.4925 15.896 17.4235 16.334 17.4235 16.85C17.4235 17.36 17.4925 17.798 17.6305 18.164C17.7685 18.53 17.9605 18.812 18.2065 19.01C18.4585 19.208 18.7405 19.307 19.0525 19.307ZM25.0202 20.108C24.4922 20.108 24.0392 19.973 23.6612 19.703C23.2832 19.427 22.9892 19.046 22.7792 18.56C22.5752 18.068 22.4732 17.498 22.4732 16.85C22.4732 16.202 22.5752 15.635 22.7792 15.149C22.9892 14.657 23.2832 14.276 23.6612 14.006C24.0392 13.73 24.4922 13.592 25.0202 13.592C25.5542 13.592 26.0072 13.73 26.3792 14.006C26.7572 14.276 27.0482 14.657 27.2522 15.149C27.4562 15.635 27.5582 16.202 27.5582 16.85C27.5582 17.498 27.4562 18.068 27.2522 18.56C27.0482 19.046 26.7572 19.427 26.3792 19.703C26.0072 19.973 25.5542 20.108 25.0202 20.108ZM25.0202 19.307C25.3322 19.307 25.6082 19.208 25.8482 19.01C26.0942 18.812 26.2862 18.53 26.4242 18.164C26.5682 17.798 26.6402 17.36 26.6402 16.85C26.6402 16.334 26.5682 15.896 26.4242 15.536C26.2862 15.17 26.0942 14.891 25.8482 14.699C25.6082 14.501 25.3322 14.402 25.0202 14.402C24.7082 14.402 24.4262 14.501 24.1742 14.699C23.9282 14.891 23.7362 15.17 23.5982 15.536C23.4602 15.896 23.3912 16.334 23.3912 16.85C23.3912 17.36 23.4602 17.798 23.5982 18.164C23.7362 18.53 23.9282 18.812 24.1742 19.01C24.4262 19.208 24.7082 19.307 25.0202 19.307Z" fill="#202224"/>
<path opacity="0.8" d="M103.493 190V181.6H108.725V182.584H104.693V185.308H108.065V186.268H104.693V190H103.493ZM112.404 190.144C111.82 190.144 111.304 190.012 110.856 189.748C110.416 189.476 110.072 189.1 109.824 188.62C109.576 188.14 109.452 187.58 109.452 186.94C109.452 186.292 109.576 185.728 109.824 185.248C110.072 184.76 110.42 184.38 110.868 184.108C111.316 183.836 111.832 183.7 112.416 183.7C113.016 183.7 113.528 183.836 113.952 184.108C114.376 184.372 114.7 184.728 114.924 185.176C115.148 185.616 115.26 186.108 115.26 186.652C115.26 186.732 115.256 186.816 115.248 186.904C115.248 186.992 115.244 187.092 115.236 187.204H110.328V186.364H114.06C114.044 185.836 113.88 185.428 113.568 185.14C113.256 184.844 112.868 184.696 112.404 184.696C112.084 184.696 111.788 184.772 111.516 184.924C111.252 185.076 111.036 185.3 110.868 185.596C110.708 185.884 110.628 186.252 110.628 186.7V187.036C110.628 187.492 110.708 187.88 110.868 188.2C111.028 188.512 111.24 188.748 111.504 188.908C111.776 189.068 112.072 189.148 112.392 189.148C112.792 189.148 113.112 189.068 113.352 188.908C113.592 188.74 113.768 188.516 113.88 188.236H115.092C114.988 188.596 114.812 188.92 114.564 189.208C114.316 189.496 114.008 189.724 113.64 189.892C113.28 190.06 112.868 190.144 112.404 190.144ZM119.905 190.144C119.561 190.144 119.253 190.096 118.981 190C118.717 189.896 118.485 189.764 118.285 189.604C118.093 189.444 117.937 189.268 117.817 189.076L117.697 190H116.617V181.36H117.817V184.792C118.009 184.464 118.281 184.2 118.633 184C118.993 183.8 119.413 183.7 119.893 183.7C120.469 183.7 120.973 183.84 121.405 184.12C121.845 184.4 122.185 184.78 122.425 185.26C122.673 185.74 122.797 186.292 122.797 186.916C122.797 187.532 122.673 188.084 122.425 188.572C122.185 189.06 121.849 189.444 121.417 189.724C120.985 190.004 120.481 190.144 119.905 190.144ZM119.701 189.1C120.061 189.1 120.381 189.012 120.661 188.836C120.941 188.652 121.161 188.4 121.321 188.08C121.489 187.752 121.573 187.368 121.573 186.928C121.573 186.488 121.489 186.104 121.321 185.776C121.161 185.448 120.941 185.196 120.661 185.02C120.381 184.836 120.061 184.744 119.701 184.744C119.325 184.744 118.997 184.836 118.717 185.02C118.437 185.196 118.217 185.448 118.057 185.776C117.905 186.104 117.829 186.488 117.829 186.928C117.829 187.368 117.905 187.752 118.057 188.08C118.217 188.4 118.437 188.652 118.717 188.836C118.997 189.012 119.325 189.1 119.701 189.1Z" fill="#202224"/>
<path opacity="0.8" d="M155.089 190V181.6H156.505L159.301 187.288L162.085 181.6H163.501V190H162.301V183.712L159.757 188.848H158.833L156.289 183.736V190H155.089ZM167.216 190.144C166.728 190.144 166.32 190.06 165.992 189.892C165.672 189.716 165.432 189.484 165.272 189.196C165.112 188.908 165.032 188.596 165.032 188.26C165.032 187.86 165.132 187.516 165.332 187.228C165.54 186.94 165.836 186.72 166.22 186.568C166.604 186.416 167.064 186.34 167.6 186.34H169.16C169.16 185.972 169.112 185.668 169.016 185.428C168.92 185.188 168.768 185.008 168.56 184.888C168.36 184.768 168.1 184.708 167.78 184.708C167.428 184.708 167.128 184.792 166.88 184.96C166.632 185.128 166.476 185.376 166.412 185.704H165.212C165.26 185.28 165.404 184.92 165.644 184.624C165.884 184.328 166.188 184.1 166.556 183.94C166.932 183.78 167.34 183.7 167.78 183.7C168.348 183.7 168.82 183.8 169.196 184C169.58 184.2 169.868 184.484 170.06 184.852C170.26 185.212 170.36 185.644 170.36 186.148V190H169.304L169.208 188.968C169.128 189.136 169.024 189.292 168.896 189.436C168.776 189.572 168.632 189.696 168.464 189.808C168.304 189.912 168.12 189.992 167.912 190.048C167.704 190.112 167.472 190.144 167.216 190.144ZM167.444 189.172C167.692 189.172 167.92 189.12 168.128 189.016C168.336 188.904 168.512 188.76 168.656 188.584C168.808 188.4 168.924 188.196 169.004 187.972C169.084 187.74 169.128 187.496 169.136 187.24V187.18H167.72C167.376 187.18 167.1 187.224 166.892 187.312C166.684 187.4 166.532 187.52 166.436 187.672C166.34 187.816 166.292 187.984 166.292 188.176C166.292 188.376 166.336 188.552 166.424 188.704C166.512 188.848 166.644 188.964 166.82 189.052C166.996 189.132 167.204 189.172 167.444 189.172ZM171.939 190V183.844H173.019L173.115 184.984C173.259 184.712 173.443 184.48 173.667 184.288C173.891 184.096 174.155 183.952 174.459 183.856C174.771 183.752 175.119 183.7 175.503 183.7V184.972H174.963C174.723 184.972 174.491 185.004 174.267 185.068C174.051 185.124 173.855 185.224 173.679 185.368C173.511 185.504 173.379 185.692 173.283 185.932C173.187 186.172 173.139 186.476 173.139 186.844V190H171.939Z" fill="#202224"/>
<path opacity="0.8" d="M207.117 190L210.213 181.6H211.521L214.593 190H213.321L210.849 183.04L208.377 190H207.117ZM208.521 187.924L208.845 186.964H212.805L213.129 187.924H208.521ZM215.754 192.64V183.844H216.834L216.954 184.78C217.082 184.588 217.238 184.412 217.422 184.252C217.614 184.084 217.842 183.952 218.106 183.856C218.378 183.752 218.69 183.7 219.042 183.7C219.618 183.7 220.122 183.844 220.554 184.132C220.986 184.412 221.322 184.796 221.562 185.284C221.81 185.764 221.934 186.316 221.934 186.94C221.934 187.556 221.81 188.108 221.562 188.596C221.314 189.076 220.974 189.456 220.542 189.736C220.11 190.008 219.61 190.144 219.042 190.144C218.562 190.144 218.142 190.052 217.782 189.868C217.43 189.676 217.154 189.412 216.954 189.076V192.64H215.754ZM218.838 189.1C219.198 189.1 219.518 189.012 219.798 188.836C220.078 188.652 220.298 188.4 220.458 188.08C220.626 187.752 220.71 187.368 220.71 186.928C220.71 186.488 220.626 186.104 220.458 185.776C220.298 185.448 220.078 185.196 219.798 185.02C219.518 184.836 219.198 184.744 218.838 184.744C218.462 184.744 218.134 184.836 217.854 185.02C217.574 185.196 217.354 185.448 217.194 185.776C217.042 186.104 216.966 186.488 216.966 186.928C216.966 187.368 217.042 187.752 217.194 188.08C217.354 188.4 217.574 188.652 217.854 188.836C218.134 189.012 218.462 189.1 218.838 189.1ZM223.359 190V183.844H224.439L224.535 184.984C224.679 184.712 224.863 184.48 225.087 184.288C225.311 184.096 225.575 183.952 225.879 183.856C226.191 183.752 226.539 183.7 226.923 183.7V184.972H226.383C226.143 184.972 225.911 185.004 225.687 185.068C225.471 185.124 225.275 185.224 225.099 185.368C224.931 185.504 224.799 185.692 224.703 185.932C224.607 186.172 224.559 186.476 224.559 186.844V190H223.359Z" fill="#202224"/>
<path opacity="0.8" d="M258.093 190V181.6H259.509L262.305 187.288L265.089 181.6H266.505V190H265.305V183.712L262.761 188.848H261.837L259.293 183.736V190H258.093ZM270.22 190.144C269.732 190.144 269.324 190.06 268.996 189.892C268.676 189.716 268.436 189.484 268.276 189.196C268.116 188.908 268.036 188.596 268.036 188.26C268.036 187.86 268.136 187.516 268.336 187.228C268.544 186.94 268.84 186.72 269.224 186.568C269.608 186.416 270.068 186.34 270.604 186.34H272.164C272.164 185.972 272.116 185.668 272.02 185.428C271.924 185.188 271.772 185.008 271.564 184.888C271.364 184.768 271.104 184.708 270.784 184.708C270.432 184.708 270.132 184.792 269.884 184.96C269.636 185.128 269.48 185.376 269.416 185.704H268.216C268.264 185.28 268.408 184.92 268.648 184.624C268.888 184.328 269.192 184.1 269.56 183.94C269.936 183.78 270.344 183.7 270.784 183.7C271.352 183.7 271.824 183.8 272.2 184C272.584 184.2 272.872 184.484 273.064 184.852C273.264 185.212 273.364 185.644 273.364 186.148V190H272.308L272.212 188.968C272.132 189.136 272.028 189.292 271.9 189.436C271.78 189.572 271.636 189.696 271.468 189.808C271.308 189.912 271.124 189.992 270.916 190.048C270.708 190.112 270.476 190.144 270.22 190.144ZM270.448 189.172C270.696 189.172 270.924 189.12 271.132 189.016C271.34 188.904 271.516 188.76 271.66 188.584C271.812 188.4 271.928 188.196 272.008 187.972C272.088 187.74 272.132 187.496 272.14 187.24V187.18H270.724C270.38 187.18 270.104 187.224 269.896 187.312C269.688 187.4 269.536 187.52 269.44 187.672C269.344 187.816 269.296 187.984 269.296 188.176C269.296 188.376 269.34 188.552 269.428 188.704C269.516 188.848 269.648 188.964 269.824 189.052C270 189.132 270.208 189.172 270.448 189.172ZM275.476 192.64L276.916 189.328H276.568L274.192 183.844H275.488L277.372 188.332L279.28 183.844H280.528L276.724 192.64H275.476Z" fill="#202224"/>
<path opacity="0.8" d="M313.726 190.144C313.206 190.144 312.758 190.048 312.382 189.856C312.006 189.656 311.714 189.368 311.506 188.992C311.298 188.616 311.194 188.168 311.194 187.648H312.406C312.406 187.92 312.45 188.164 312.538 188.38C312.626 188.596 312.762 188.768 312.946 188.896C313.138 189.016 313.39 189.076 313.702 189.076C314.006 189.076 314.25 189.016 314.434 188.896C314.618 188.776 314.75 188.616 314.83 188.416C314.91 188.208 314.95 187.972 314.95 187.708V181.6H316.15V187.708C316.15 188.484 315.934 189.084 315.502 189.508C315.07 189.932 314.478 190.144 313.726 190.144ZM320.105 190.144C319.633 190.144 319.225 190.052 318.881 189.868C318.537 189.684 318.269 189.404 318.077 189.028C317.893 188.644 317.801 188.168 317.801 187.6V183.844H319.001V187.468C319.001 188.02 319.125 188.436 319.373 188.716C319.621 188.988 319.973 189.124 320.429 189.124C320.741 189.124 321.017 189.052 321.257 188.908C321.505 188.764 321.701 188.556 321.845 188.284C321.997 188.004 322.073 187.66 322.073 187.252V183.844H323.273V190H322.193L322.121 188.992C321.937 189.352 321.669 189.636 321.317 189.844C320.973 190.044 320.569 190.144 320.105 190.144ZM324.928 190V183.844H326.008L326.08 184.852C326.264 184.5 326.528 184.22 326.872 184.012C327.224 183.804 327.632 183.7 328.096 183.7C328.568 183.7 328.976 183.796 329.32 183.988C329.664 184.172 329.932 184.456 330.124 184.84C330.316 185.216 330.412 185.688 330.412 186.256V190H329.212V186.376C329.212 185.832 329.084 185.424 328.828 185.152C328.58 184.872 328.228 184.732 327.772 184.732C327.468 184.732 327.188 184.804 326.932 184.948C326.684 185.092 326.488 185.304 326.344 185.584C326.2 185.856 326.128 186.192 326.128 186.592V190H324.928Z" fill="#202224"/>
<path opacity="0.8" d="M367.83 190.144C367.31 190.144 366.862 190.048 366.486 189.856C366.11 189.656 365.818 189.368 365.61 188.992C365.402 188.616 365.298 188.168 365.298 187.648H366.51C366.51 187.92 366.554 188.164 366.642 188.38C366.73 188.596 366.866 188.768 367.05 188.896C367.242 189.016 367.494 189.076 367.806 189.076C368.11 189.076 368.354 189.016 368.538 188.896C368.722 188.776 368.854 188.616 368.934 188.416C369.014 188.208 369.054 187.972 369.054 187.708V181.6H370.254V187.708C370.254 188.484 370.038 189.084 369.606 189.508C369.174 189.932 368.582 190.144 367.83 190.144ZM374.209 190.144C373.737 190.144 373.329 190.052 372.985 189.868C372.641 189.684 372.373 189.404 372.181 189.028C371.997 188.644 371.905 188.168 371.905 187.6V183.844H373.105V187.468C373.105 188.02 373.229 188.436 373.477 188.716C373.725 188.988 374.077 189.124 374.533 189.124C374.845 189.124 375.121 189.052 375.361 188.908C375.609 188.764 375.805 188.556 375.949 188.284C376.101 188.004 376.177 187.66 376.177 187.252V183.844H377.377V190H376.297L376.225 188.992C376.041 189.352 375.773 189.636 375.421 189.844C375.077 190.044 374.673 190.144 374.209 190.144ZM379.031 190V181.36H380.231V190H379.031Z" fill="#202224"/>
<path opacity="0.8" d="M414.344 190L417.44 181.6H418.748L421.82 190H420.548L418.076 183.04L415.604 190H414.344ZM415.748 187.924L416.072 186.964H420.032L420.356 187.924H415.748ZM425.107 190.144C424.635 190.144 424.227 190.052 423.883 189.868C423.539 189.684 423.271 189.404 423.079 189.028C422.895 188.644 422.803 188.168 422.803 187.6V183.844H424.003V187.468C424.003 188.02 424.127 188.436 424.375 188.716C424.623 188.988 424.975 189.124 425.431 189.124C425.743 189.124 426.019 189.052 426.259 188.908C426.507 188.764 426.703 188.556 426.847 188.284C426.999 188.004 427.075 187.66 427.075 187.252V183.844H428.275V190H427.195L427.123 188.992C426.939 189.352 426.671 189.636 426.319 189.844C425.975 190.044 425.571 190.144 425.107 190.144ZM432.414 192.784C431.846 192.784 431.35 192.712 430.926 192.568C430.502 192.432 430.17 192.22 429.93 191.932C429.698 191.644 429.582 191.292 429.582 190.876C429.582 190.652 429.63 190.428 429.726 190.204C429.822 189.98 429.978 189.768 430.194 189.568C430.41 189.368 430.702 189.188 431.07 189.028L431.766 189.568C431.35 189.728 431.07 189.912 430.926 190.12C430.782 190.336 430.71 190.548 430.71 190.756C430.71 190.996 430.782 191.196 430.926 191.356C431.078 191.516 431.278 191.636 431.526 191.716C431.782 191.796 432.074 191.836 432.402 191.836C432.73 191.836 433.01 191.792 433.242 191.704C433.482 191.616 433.666 191.492 433.794 191.332C433.922 191.18 433.986 190.996 433.986 190.78C433.986 190.5 433.89 190.272 433.698 190.096C433.506 189.928 433.13 189.828 432.57 189.796C432.106 189.764 431.714 189.72 431.394 189.664C431.074 189.608 430.802 189.54 430.578 189.46C430.362 189.38 430.178 189.292 430.026 189.196C429.882 189.1 429.754 189 429.642 188.896V188.62L430.854 187.396L431.85 187.72L430.518 188.932L430.77 188.38C430.85 188.436 430.93 188.492 431.01 188.548C431.098 188.596 431.21 188.64 431.346 188.68C431.482 188.72 431.666 188.76 431.898 188.8C432.138 188.832 432.45 188.864 432.834 188.896C433.386 188.936 433.83 189.032 434.166 189.184C434.502 189.336 434.746 189.544 434.898 189.808C435.058 190.064 435.138 190.376 435.138 190.744C435.138 191.088 435.042 191.416 434.85 191.728C434.658 192.04 434.362 192.292 433.962 192.484C433.562 192.684 433.046 192.784 432.414 192.784ZM432.402 188.116C431.898 188.116 431.466 188.02 431.106 187.828C430.746 187.628 430.474 187.364 430.29 187.036C430.106 186.7 430.014 186.324 430.014 185.908C430.014 185.492 430.106 185.12 430.29 184.792C430.482 184.464 430.754 184.2 431.106 184C431.466 183.8 431.898 183.7 432.402 183.7C432.922 183.7 433.358 183.8 433.71 184C434.07 184.2 434.342 184.464 434.526 184.792C434.71 185.12 434.802 185.492 434.802 185.908C434.802 186.324 434.71 186.7 434.526 187.036C434.342 187.364 434.07 187.628 433.71 187.828C433.358 188.02 432.922 188.116 432.402 188.116ZM432.402 187.156C432.802 187.156 433.118 187.052 433.35 186.844C433.582 186.628 433.698 186.316 433.698 185.908C433.698 185.5 433.582 185.192 433.35 184.984C433.118 184.776 432.802 184.672 432.402 184.672C432.018 184.672 431.702 184.776 431.454 184.984C431.214 185.192 431.094 185.5 431.094 185.908C431.094 186.316 431.214 186.628 431.454 186.844C431.694 187.052 432.01 187.156 432.402 187.156ZM433.422 184.792L433.134 183.844H435.618V184.672L433.422 184.792Z" fill="#202224"/>
<path opacity="0.8" d="M469.825 190.144C469.217 190.144 468.681 190.036 468.217 189.82C467.753 189.596 467.393 189.284 467.137 188.884C466.881 188.484 466.749 188.016 466.741 187.48H468.013C468.013 187.784 468.081 188.064 468.217 188.32C468.361 188.568 468.565 188.768 468.829 188.92C469.101 189.064 469.433 189.136 469.825 189.136C470.161 189.136 470.449 189.08 470.689 188.968C470.937 188.856 471.125 188.704 471.253 188.512C471.381 188.312 471.445 188.084 471.445 187.828C471.445 187.54 471.381 187.304 471.253 187.12C471.125 186.928 470.945 186.768 470.713 186.64C470.489 186.512 470.229 186.4 469.933 186.304C469.645 186.208 469.333 186.104 468.997 185.992C468.317 185.768 467.813 185.484 467.485 185.14C467.165 184.796 467.005 184.348 467.005 183.796C467.005 183.324 467.113 182.916 467.329 182.572C467.553 182.22 467.869 181.948 468.277 181.756C468.685 181.556 469.161 181.456 469.705 181.456C470.257 181.456 470.733 181.556 471.133 181.756C471.541 181.956 471.861 182.232 472.093 182.584C472.325 182.936 472.445 183.348 472.453 183.82H471.181C471.181 183.604 471.121 183.392 471.001 183.184C470.889 182.976 470.721 182.808 470.497 182.68C470.281 182.544 470.009 182.476 469.681 182.476C469.401 182.468 469.153 182.512 468.937 182.608C468.721 182.704 468.553 182.844 468.433 183.028C468.313 183.212 468.253 183.432 468.253 183.688C468.253 183.944 468.309 184.152 468.421 184.312C468.533 184.464 468.689 184.596 468.889 184.708C469.097 184.82 469.341 184.924 469.621 185.02C469.901 185.108 470.209 185.208 470.545 185.32C470.953 185.456 471.321 185.624 471.649 185.824C471.977 186.016 472.233 186.268 472.417 186.58C472.609 186.884 472.705 187.276 472.705 187.756C472.705 188.172 472.597 188.56 472.381 188.92C472.165 189.28 471.845 189.576 471.421 189.808C470.997 190.032 470.465 190.144 469.825 190.144ZM476.82 190.144C476.236 190.144 475.72 190.012 475.272 189.748C474.832 189.476 474.488 189.1 474.24 188.62C473.992 188.14 473.868 187.58 473.868 186.94C473.868 186.292 473.992 185.728 474.24 185.248C474.488 184.76 474.836 184.38 475.284 184.108C475.732 183.836 476.248 183.7 476.832 183.7C477.432 183.7 477.944 183.836 478.368 184.108C478.792 184.372 479.116 184.728 479.34 185.176C479.564 185.616 479.676 186.108 479.676 186.652C479.676 186.732 479.672 186.816 479.664 186.904C479.664 186.992 479.66 187.092 479.652 187.204H474.744V186.364H478.476C478.46 185.836 478.296 185.428 477.984 185.14C477.672 184.844 477.284 184.696 476.82 184.696C476.5 184.696 476.204 184.772 475.932 184.924C475.668 185.076 475.452 185.3 475.284 185.596C475.124 185.884 475.044 186.252 475.044 186.7V187.036C475.044 187.492 475.124 187.88 475.284 188.2C475.444 188.512 475.656 188.748 475.92 188.908C476.192 189.068 476.488 189.148 476.808 189.148C477.208 189.148 477.528 189.068 477.768 188.908C478.008 188.74 478.184 188.516 478.296 188.236H479.508C479.404 188.596 479.228 188.92 478.98 189.208C478.732 189.496 478.424 189.724 478.056 189.892C477.696 190.06 477.284 190.144 476.82 190.144ZM481.033 192.64V183.844H482.113L482.233 184.78C482.361 184.588 482.517 184.412 482.701 184.252C482.893 184.084 483.121 183.952 483.385 183.856C483.657 183.752 483.969 183.7 484.321 183.7C484.897 183.7 485.401 183.844 485.833 184.132C486.265 184.412 486.601 184.796 486.841 185.284C487.089 185.764 487.213 186.316 487.213 186.94C487.213 187.556 487.089 188.108 486.841 188.596C486.593 189.076 486.253 189.456 485.821 189.736C485.389 190.008 484.889 190.144 484.321 190.144C483.841 190.144 483.421 190.052 483.061 189.868C482.709 189.676 482.433 189.412 482.233 189.076V192.64H481.033ZM484.117 189.1C484.477 189.1 484.797 189.012 485.077 188.836C485.357 188.652 485.577 188.4 485.737 188.08C485.905 187.752 485.989 187.368 485.989 186.928C485.989 186.488 485.905 186.104 485.737 185.776C485.577 185.448 485.357 185.196 485.077 185.02C484.797 184.836 484.477 184.744 484.117 184.744C483.741 184.744 483.413 184.836 483.133 185.02C482.853 185.196 482.633 185.448 482.473 185.776C482.321 186.104 482.245 186.488 482.245 186.928C482.245 187.368 482.321 187.752 482.473 188.08C482.633 188.4 482.853 188.652 483.133 188.836C483.413 189.012 483.741 189.1 484.117 189.1Z" fill="#202224"/>
<path opacity="0.8" d="M523.09 190.144C522.298 190.144 521.598 189.964 520.99 189.604C520.39 189.236 519.918 188.728 519.574 188.08C519.238 187.424 519.07 186.664 519.07 185.8C519.07 184.944 519.238 184.192 519.574 183.544C519.918 182.888 520.39 182.376 520.99 182.008C521.598 181.64 522.298 181.456 523.09 181.456C523.898 181.456 524.602 181.64 525.202 182.008C525.81 182.376 526.282 182.888 526.618 183.544C526.954 184.192 527.122 184.944 527.122 185.8C527.122 186.664 526.954 187.424 526.618 188.08C526.282 188.728 525.81 189.236 525.202 189.604C524.602 189.964 523.898 190.144 523.09 190.144ZM523.09 189.076C523.658 189.076 524.15 188.944 524.566 188.68C524.99 188.416 525.318 188.04 525.55 187.552C525.782 187.064 525.898 186.48 525.898 185.8C525.898 185.12 525.782 184.536 525.55 184.048C525.318 183.56 524.99 183.188 524.566 182.932C524.15 182.668 523.658 182.536 523.09 182.536C522.53 182.536 522.038 182.668 521.614 182.932C521.198 183.188 520.874 183.56 520.642 184.048C520.41 184.536 520.294 185.12 520.294 185.8C520.294 186.48 520.41 187.064 520.642 187.552C520.874 188.04 521.198 188.416 521.614 188.68C522.038 188.944 522.53 189.076 523.09 189.076ZM531.306 190.144C530.722 190.144 530.202 190.008 529.746 189.736C529.29 189.464 528.93 189.088 528.666 188.608C528.41 188.128 528.282 187.572 528.282 186.94C528.282 186.292 528.41 185.728 528.666 185.248C528.93 184.76 529.29 184.38 529.746 184.108C530.202 183.836 530.722 183.7 531.306 183.7C532.042 183.7 532.658 183.896 533.154 184.288C533.65 184.672 533.966 185.196 534.102 185.86H532.854C532.774 185.508 532.59 185.232 532.302 185.032C532.014 184.832 531.678 184.732 531.294 184.732C530.958 184.732 530.654 184.816 530.382 184.984C530.11 185.152 529.894 185.4 529.734 185.728C529.582 186.048 529.506 186.448 529.506 186.928C529.506 187.28 529.55 187.596 529.638 187.876C529.734 188.148 529.862 188.376 530.022 188.56C530.182 188.744 530.37 188.884 530.586 188.98C530.802 189.076 531.038 189.124 531.294 189.124C531.55 189.124 531.786 189.08 532.002 188.992C532.218 188.904 532.398 188.776 532.542 188.608C532.694 188.432 532.798 188.228 532.854 187.996H534.102C533.966 188.636 533.646 189.156 533.142 189.556C532.646 189.948 532.034 190.144 531.306 190.144ZM537.92 190C537.536 190 537.204 189.94 536.924 189.82C536.644 189.7 536.428 189.5 536.276 189.22C536.124 188.94 536.048 188.56 536.048 188.08V184.864H534.992V183.844H536.048L536.204 182.284H537.248V183.844H538.976V184.864H537.248V188.092C537.248 188.436 537.32 188.672 537.464 188.8C537.608 188.92 537.856 188.98 538.208 188.98H538.94V190H537.92Z" fill="#202224"/>
<path opacity="0.8" d="M570.931 190V181.6H572.131L576.415 188.044V181.6H577.615V190H576.415L572.131 183.556V190H570.931ZM582.092 190.144C581.516 190.144 581 190.012 580.544 189.748C580.096 189.476 579.744 189.1 579.488 188.62C579.232 188.132 579.104 187.568 579.104 186.928C579.104 186.28 579.232 185.716 579.488 185.236C579.752 184.748 580.108 184.372 580.556 184.108C581.012 183.836 581.528 183.7 582.104 183.7C582.688 183.7 583.204 183.836 583.652 184.108C584.108 184.372 584.464 184.748 584.72 185.236C584.976 185.716 585.104 186.28 585.104 186.928C585.104 187.568 584.972 188.132 584.708 188.62C584.452 189.1 584.096 189.476 583.64 189.748C583.192 190.012 582.676 190.144 582.092 190.144ZM582.092 189.112C582.42 189.112 582.72 189.032 582.992 188.872C583.264 188.704 583.48 188.46 583.64 188.14C583.8 187.812 583.88 187.408 583.88 186.928C583.88 186.44 583.8 186.036 583.64 185.716C583.488 185.388 583.276 185.144 583.004 184.984C582.74 184.816 582.444 184.732 582.116 184.732C581.788 184.732 581.488 184.816 581.216 184.984C580.944 185.144 580.728 185.388 580.568 185.716C580.408 186.036 580.328 186.44 580.328 186.928C580.328 187.408 580.408 187.812 580.568 188.14C580.728 188.46 580.94 188.704 581.204 188.872C581.476 189.032 581.772 189.112 582.092 189.112ZM587.974 190L585.67 183.844H586.93L588.694 188.848L590.458 183.844H591.694L589.39 190H587.974Z" fill="#202224"/>
<path opacity="0.8" d="M622.802 190V181.6H625.262C626.238 181.6 627.042 181.772 627.674 182.116C628.314 182.46 628.786 182.948 629.09 183.58C629.402 184.204 629.558 184.948 629.558 185.812C629.558 186.676 629.402 187.42 629.09 188.044C628.786 188.668 628.314 189.152 627.674 189.496C627.042 189.832 626.238 190 625.262 190H622.802ZM624.002 188.992H625.214C625.99 188.992 626.602 188.864 627.05 188.608C627.506 188.352 627.83 187.988 628.022 187.516C628.222 187.036 628.322 186.468 628.322 185.812C628.322 185.148 628.222 184.576 628.022 184.096C627.83 183.616 627.506 183.248 627.05 182.992C626.602 182.736 625.99 182.608 625.214 182.608H624.002V188.992ZM633.681 190.144C633.097 190.144 632.581 190.012 632.133 189.748C631.693 189.476 631.349 189.1 631.101 188.62C630.853 188.14 630.729 187.58 630.729 186.94C630.729 186.292 630.853 185.728 631.101 185.248C631.349 184.76 631.697 184.38 632.145 184.108C632.593 183.836 633.109 183.7 633.693 183.7C634.293 183.7 634.805 183.836 635.229 184.108C635.653 184.372 635.977 184.728 636.201 185.176C636.425 185.616 636.537 186.108 636.537 186.652C636.537 186.732 636.533 186.816 636.525 186.904C636.525 186.992 636.521 187.092 636.513 187.204H631.605V186.364H635.337C635.321 185.836 635.157 185.428 634.845 185.14C634.533 184.844 634.145 184.696 633.681 184.696C633.361 184.696 633.065 184.772 632.793 184.924C632.529 185.076 632.313 185.3 632.145 185.596C631.985 185.884 631.905 186.252 631.905 186.7V187.036C631.905 187.492 631.985 187.88 632.145 188.2C632.305 188.512 632.517 188.748 632.781 188.908C633.053 189.068 633.349 189.148 633.669 189.148C634.069 189.148 634.389 189.068 634.629 188.908C634.869 188.74 635.045 188.516 635.157 188.236H636.369C636.265 188.596 636.089 188.92 635.841 189.208C635.593 189.496 635.285 189.724 634.917 189.892C634.557 190.06 634.145 190.144 633.681 190.144ZM640.69 190.144C640.106 190.144 639.586 190.008 639.13 189.736C638.674 189.464 638.314 189.088 638.05 188.608C637.794 188.128 637.666 187.572 637.666 186.94C637.666 186.292 637.794 185.728 638.05 185.248C638.314 184.76 638.674 184.38 639.13 184.108C639.586 183.836 640.106 183.7 640.69 183.7C641.426 183.7 642.042 183.896 642.538 184.288C643.034 184.672 643.35 185.196 643.486 185.86H642.238C642.158 185.508 641.974 185.232 641.686 185.032C641.398 184.832 641.062 184.732 640.678 184.732C640.342 184.732 640.038 184.816 639.766 184.984C639.494 185.152 639.278 185.4 639.118 185.728C638.966 186.048 638.89 186.448 638.89 186.928C638.89 187.28 638.934 187.596 639.022 187.876C639.118 188.148 639.246 188.376 639.406 188.56C639.566 188.744 639.754 188.884 639.97 188.98C640.186 189.076 640.422 189.124 640.678 189.124C640.934 189.124 641.17 189.08 641.386 188.992C641.602 188.904 641.782 188.776 641.926 188.608C642.078 188.432 642.182 188.228 642.238 187.996H643.486C643.35 188.636 643.03 189.156 642.526 189.556C642.03 189.948 641.418 190.144 640.69 190.144Z" fill="#202224"/>
<path d="M113.5 121.5L113.93 122.403L113.939 122.399L113.947 122.394L113.5 121.5ZM164.5 96V95H164.264L164.053 95.1056L164.5 96ZM216.5 96V97H216.734L216.944 96.8961L216.5 96ZM270 69.5L270.444 70.3962L270.455 70.3907L270 69.5ZM318 45L318.874 44.5136L318.405 43.6708L317.545 44.1093L318 45ZM374.5 146.5L373.626 146.986L374.093 147.826L374.951 147.393L374.5 146.5ZM426 120.5L426.019 119.5L425.771 119.496L425.549 119.607L426 120.5ZM479.5 121.5L479.481 122.5L479.733 122.505L479.958 122.389L479.5 121.5ZM531 95L531.458 95.8892L531.458 95.889L531 95ZM580.5 69.5L580.136 68.5686L580.088 68.5874L580.042 68.611L580.5 69.5ZM635.5 48L624.084 46.2635L628.288 57.0181L635.5 48ZM61.4299 147.403L63.3049 146.51L62.4451 144.704L60.5701 145.597L61.4299 147.403ZM67.0549 144.724L70.8049 142.939L69.9451 141.133L66.1951 142.919L67.0549 144.724ZM74.5549 141.153L78.3049 139.367L77.4451 137.561L73.6951 139.347L74.5549 141.153ZM82.0549 137.581L85.8049 135.796L84.9451 133.99L81.1951 135.776L82.0549 137.581ZM89.5549 134.01L93.3049 132.224L92.4451 130.419L88.6951 132.204L89.5549 134.01ZM97.0549 130.439L100.805 128.653L99.9451 126.847L96.1951 128.633L97.0549 130.439ZM104.555 126.867L108.305 125.081L107.445 123.276L103.695 125.061L104.555 126.867ZM112.055 123.296L113.93 122.403L113.07 120.597L111.195 121.49L112.055 123.296ZM113.947 122.394L115.769 121.484L114.874 119.695L113.053 120.606L113.947 122.394ZM119.411 119.662L123.054 117.841L122.16 116.052L118.517 117.873L119.411 119.662ZM126.697 116.019L130.34 114.198L129.446 112.409L125.803 114.231L126.697 116.019ZM133.983 112.377L137.626 110.555L136.731 108.766L133.089 110.588L133.983 112.377ZM141.269 108.734L144.911 106.912L144.017 105.123L140.374 106.945L141.269 108.734ZM148.554 105.091L152.197 103.269L151.303 101.481L147.66 103.302L148.554 105.091ZM155.84 101.448L159.483 99.6266L158.589 97.8377L154.946 99.6591L155.84 101.448ZM163.126 97.8051L164.947 96.8944L164.053 95.1056L162.231 96.0163L163.126 97.8051ZM164.5 97H166.357V95H164.5V97ZM170.071 97H173.786V95H170.071V97ZM177.5 97H181.214V95H177.5V97ZM184.929 97H188.643V95H184.929V97ZM192.357 97H196.071V95H192.357V97ZM199.786 97H203.5V95H199.786V97ZM207.214 97H210.929V95H207.214V97ZM214.643 97H216.5V95H214.643V97ZM216.944 96.8961L218.855 95.9497L217.967 94.1575L216.056 95.1039L216.944 96.8961ZM222.676 94.0568L226.497 92.164L225.61 90.3718L221.788 92.2646L222.676 94.0568ZM230.319 90.2711L234.14 88.3782L233.253 86.586L229.431 88.4789L230.319 90.2711ZM237.962 86.4854L241.783 84.5925L240.895 82.8003L237.074 84.6932L237.962 86.4854ZM245.605 82.6997L249.426 80.8068L248.538 79.0146L244.717 80.9075L245.605 82.6997ZM253.247 78.914L257.069 77.0211L256.181 75.2289L252.36 77.1218L253.247 78.914ZM260.89 75.1282L264.712 73.2354L263.824 71.4432L260.003 73.336L260.89 75.1282ZM268.533 71.3425L270.444 70.3961L269.556 68.6039L267.645 69.5503L268.533 71.3425ZM270.455 70.3907L272.169 69.5157L271.26 67.7343L269.545 68.6093L270.455 70.3907ZM275.597 67.7657L279.026 66.0157L278.117 64.2343L274.688 65.9843L275.597 67.7657ZM282.455 64.2657L285.883 62.5157L284.974 60.7343L281.545 62.4843L282.455 64.2657ZM289.312 60.7657L292.74 59.0157L291.831 57.2343L288.403 58.9843L289.312 60.7657ZM296.169 57.2657L299.597 55.5157L298.688 53.7343L295.26 55.4843L296.169 57.2657ZM303.026 53.7657L306.455 52.0157L305.545 50.2343L302.117 51.9843L303.026 53.7657ZM309.883 50.2657L313.312 48.5157L312.403 46.7343L308.974 48.4843L309.883 50.2657ZM316.74 46.7657L318.455 45.8907L317.545 44.1093L315.831 44.9843L316.74 46.7657ZM317.126 45.4864L318.068 47.178L319.815 46.2053L318.874 44.5136L317.126 45.4864ZM319.951 50.5614L321.835 53.9447L323.582 52.972L321.699 49.5886L319.951 50.5614ZM323.718 57.328L325.601 60.7114L327.349 59.7386L325.465 56.3553L323.718 57.328ZM327.485 64.0947L329.368 67.478L331.115 66.5053L329.232 63.122L327.485 64.0947ZM331.251 70.8614L333.135 74.2447L334.882 73.272L332.999 69.8886L331.251 70.8614ZM335.018 77.628L336.901 81.0114L338.649 80.0386L336.765 76.6553L335.018 77.628ZM338.785 84.3947L340.668 87.778L342.415 86.8053L340.532 83.422L338.785 84.3947ZM342.551 91.1614L344.435 94.5447L346.182 93.572L344.299 90.1886L342.551 91.1614ZM346.318 97.9281L348.201 101.311L349.949 100.339L348.065 96.9553L346.318 97.9281ZM350.085 104.695L351.968 108.078L353.715 107.105L351.832 103.722L350.085 104.695ZM353.851 111.461L355.735 114.845L357.482 113.872L355.599 110.489L353.851 111.461ZM357.618 118.228L359.501 121.611L361.249 120.639L359.365 117.255L357.618 118.228ZM361.385 124.995L363.268 128.378L365.015 127.405L363.132 124.022L361.385 124.995ZM365.151 131.761L367.035 135.145L368.782 134.172L366.899 130.789L365.151 131.761ZM368.918 138.528L370.801 141.911L372.549 140.939L370.665 137.555L368.918 138.528ZM372.685 145.295L373.626 146.986L375.374 146.014L374.432 144.322L372.685 145.295ZM374.951 147.393L376.79 146.464L375.889 144.679L374.049 145.607L374.951 147.393ZM380.469 144.607L384.147 142.75L383.246 140.964L379.567 142.822L380.469 144.607ZM387.826 140.893L391.504 139.036L390.603 137.25L386.924 139.107L387.826 140.893ZM395.183 137.178L398.861 135.321L397.96 133.536L394.281 135.393L395.183 137.178ZM402.54 133.464L406.219 131.607L405.317 129.822L401.639 131.679L402.54 133.464ZM409.897 129.75L413.576 127.893L412.674 126.107L408.996 127.964L409.897 129.75ZM417.254 126.036L420.933 124.178L420.031 122.393L416.353 124.25L417.254 126.036ZM424.611 122.321L426.451 121.393L425.549 119.607L423.71 120.536L424.611 122.321ZM425.981 121.5L427.892 121.536L427.929 119.536L426.019 119.5L425.981 121.5ZM431.713 121.607L435.535 121.678L435.572 119.679L431.751 119.607L431.713 121.607ZM439.356 121.75L443.178 121.821L443.215 119.822L439.394 119.75L439.356 121.75ZM446.999 121.893L450.821 121.964L450.858 119.964L447.037 119.893L446.999 121.893ZM454.642 122.036L458.463 122.107L458.501 120.107L454.679 120.036L454.642 122.036ZM462.285 122.178L466.106 122.25L466.144 120.25L462.322 120.179L462.285 122.178ZM469.928 122.321L473.749 122.393L473.787 120.393L469.965 120.322L469.928 122.321ZM477.571 122.464L479.481 122.5L479.519 120.5L477.608 120.464L477.571 122.464ZM479.958 122.389L481.797 121.443L480.882 119.664L479.042 120.611L479.958 122.389ZM485.475 119.55L489.154 117.657L488.239 115.879L484.56 117.772L485.475 119.55ZM492.833 115.764L496.511 113.871L495.596 112.093L491.917 113.986L492.833 115.764ZM500.19 111.978L503.868 110.086L502.953 108.307L499.275 110.2L500.19 111.978ZM507.547 108.193L511.225 106.3L510.31 104.522L506.632 106.414L507.547 108.193ZM514.904 104.407L518.583 102.514L517.667 100.736L513.989 102.629L514.904 104.407ZM522.261 100.621L525.94 98.7285L525.025 96.9501L521.346 98.843L522.261 100.621ZM529.618 96.8356L531.458 95.8892L530.542 94.1108L528.703 95.0572L529.618 96.8356ZM531.458 95.889L533.226 94.9783L532.31 93.2003L530.542 94.111L531.458 95.889ZM536.762 93.1568L540.297 91.3354L539.381 89.5575L535.846 91.3789L536.762 93.1568ZM543.833 89.514L547.369 87.6925L546.453 85.9146L542.917 87.736L543.833 89.514ZM550.904 85.8711L554.44 84.0497L553.524 82.2717L549.988 84.0932L550.904 85.8711ZM557.976 82.2283L561.512 80.4068L560.596 78.6289L557.06 80.4503L557.976 82.2283ZM565.047 78.5854L568.583 76.764L567.667 74.986L564.131 76.8075L565.047 78.5854ZM572.119 74.9425L575.654 73.1211L574.738 71.3432L571.203 73.1646L572.119 74.9425ZM579.19 71.2997L580.958 70.389L580.042 68.611L578.274 69.5217L579.19 71.2997ZM580.864 70.4314L582.828 69.6635L582.1 67.8008L580.136 68.5686L580.864 70.4314ZM586.757 68.1278L590.685 66.5921L589.957 64.7293L586.029 66.2651L586.757 68.1278ZM594.614 65.0564L598.543 63.5207L597.815 61.6579L593.886 63.1936L594.614 65.0564ZM602.471 61.9849L606.4 60.4492L605.672 58.5865L601.743 60.1222L602.471 61.9849ZM610.328 58.9135L614.257 57.3778L613.529 55.5151L609.6 57.0508L610.328 58.9135ZM618.185 55.8421L622.114 54.3064L621.386 52.4436L617.457 53.9793L618.185 55.8421ZM626.043 52.7707L629.971 51.2349L629.243 49.3722L625.315 50.9079L626.043 52.7707Z" fill="#CCBFBF"/>
<path d="M35.5 0V173.5H670" stroke="black"/>
<circle cx="62" cy="147" r="2" fill="#008FCE"/>
<circle cx="113" cy="121" r="2" fill="#008FCE"/>
<circle cx="375" cy="147" r="2" fill="#008FCE"/>
<circle cx="426" cy="121" r="2" fill="#008FCE"/>
<circle cx="479" cy="121" r="2" fill="#008FCE"/>
<circle cx="531" cy="95" r="2" fill="#008FCE"/>
<circle cx="579" cy="70" r="2" fill="#008FCE"/>
<circle cx="635" cy="47" r="2" fill="#008FCE"/>
<circle cx="165" cy="95" r="2" fill="#008FCE"/>
<circle cx="217" cy="95" r="2" fill="#008FCE"/>
<circle cx="271" cy="69" r="2" fill="#008FCE"/>
<circle cx="319" cy="45" r="2" fill="#008FCE"/>
</svg>
