<svg xmlns="http://www.w3.org/2000/svg" width="9" height="11" viewBox="0 0 9 11" fill="none">
  <path d="M4.5 0C5.69306 0.00131019 6.83688 0.465313 7.6805 1.29021C8.52412 2.11511 8.99866 3.23353 9 4.40011C9 6.19041 7.67081 7.6771 6.26287 9.25069C5.81737 9.749 5.35612 10.2644 4.9455 10.7858C4.89295 10.8524 4.82546 10.9064 4.74823 10.9435C4.67099 10.9807 4.58607 11 4.5 11C4.41393 11 4.32901 10.9807 4.25177 10.9435C4.17454 10.9064 4.10705 10.8524 4.0545 10.7858C3.64388 10.2644 3.18263 9.749 2.73712 9.25069C1.32919 7.6771 0 6.19041 0 4.40011C0.00133991 3.23353 0.475877 2.11511 1.3195 1.29021C2.16312 0.465313 3.30694 0.00131019 4.5 0ZM4.5 6.05016C4.83376 6.05016 5.16002 5.95338 5.43752 5.77208C5.71503 5.59077 5.93132 5.33306 6.05905 5.03156C6.18677 4.73005 6.22019 4.39828 6.15508 4.07821C6.08996 3.75813 5.92924 3.46412 5.69324 3.23336C5.45724 3.0026 5.15656 2.84544 4.82922 2.78178C4.50187 2.71811 4.16257 2.75079 3.85422 2.87567C3.54587 3.00056 3.28232 3.21205 3.0969 3.4834C2.91147 3.75475 2.8125 4.07377 2.8125 4.40011C2.8125 4.83773 2.99029 5.25743 3.30676 5.56687C3.62322 5.87631 4.05245 6.05016 4.5 6.05016Z" fill="#979797"/>
</svg>