<svg width="17" height="16" viewBox="0 0 17 16" fill="none" xmlns="http://www.w3.org/2000/svg">
<path d="M9.00361 8.80004L7.04815 10.632C6.96847 10.7064 6.90522 10.7949 6.86205 10.8924C6.81889 10.9899 6.79667 11.0944 6.79667 11.2C6.79667 11.3056 6.81889 11.4102 6.86205 11.5077C6.90522 11.6052 6.96847 11.6937 7.04815 11.768C7.12719 11.843 7.22122 11.9025 7.32483 11.9431C7.42843 11.9837 7.53956 12.0047 7.6518 12.0047C7.76403 12.0047 7.87516 11.9837 7.97876 11.9431C8.08237 11.9025 8.1764 11.843 8.25544 11.768L11.6562 8.56804C11.7336 8.49195 11.7943 8.40224 11.8348 8.30404C11.9198 8.10927 11.9198 7.89081 11.8348 7.69604C11.7943 7.59784 11.7336 7.50813 11.6562 7.43204L8.25544 4.23206C8.17617 4.15747 8.08206 4.0983 7.97848 4.05793C7.87491 4.01756 7.7639 3.99679 7.6518 3.99679C7.53969 3.99679 7.42868 4.01756 7.32511 4.05793C7.22153 4.0983 7.12743 4.15747 7.04815 4.23206C6.96888 4.30665 6.906 4.3952 6.8631 4.49266C6.8202 4.59011 6.79812 4.69457 6.79812 4.80006C6.79812 4.90554 6.8202 5.01 6.8631 5.10745C6.906 5.20491 6.96888 5.29346 7.04815 5.36805L9.00361 7.20004H0.8502C0.624713 7.20004 0.408461 7.28433 0.249018 7.43436C0.0895743 7.58439 0 7.78787 0 8.00004C0 8.21221 0.0895743 8.41569 0.249018 8.56572C0.408461 8.71575 0.624713 8.80004 0.8502 8.80004H9.00361ZM8.502 7.97545e-05C6.91305 -0.00659524 5.35391 0.405848 4.00144 1.19063C2.64896 1.97541 1.55727 3.10111 0.8502 4.44006C0.74873 4.63101 0.732034 4.85207 0.803784 5.05461C0.875533 5.25715 1.02985 5.42457 1.23279 5.52005C1.43573 5.61553 1.67066 5.63124 1.88591 5.56373C2.10116 5.49621 2.27909 5.35101 2.38056 5.16005C2.91805 4.13872 3.73563 3.27096 4.74883 2.64646C5.76203 2.02195 6.93408 1.66337 8.14385 1.60775C9.35363 1.55212 10.5572 1.80149 11.6303 2.33008C12.7034 2.85866 13.607 3.64729 14.2477 4.61445C14.8885 5.58162 15.2431 6.69224 15.275 7.83155C15.3069 8.97085 15.0149 10.0975 14.4292 11.0951C13.8434 12.0926 12.9852 12.9249 11.9432 13.506C10.9012 14.087 9.71321 14.3956 8.502 14.4C7.23425 14.4052 5.99064 14.0739 4.91389 13.4442C3.83715 12.8145 2.9709 11.9119 2.41457 10.84C2.3131 10.6491 2.13517 10.5039 1.91992 10.4364C1.70467 10.3688 1.46974 10.3846 1.2668 10.48C1.06386 10.5755 0.909541 10.7429 0.837792 10.9455C0.766042 11.148 0.782738 11.3691 0.884207 11.56C1.55827 12.8364 2.5825 13.9202 3.85095 14.6992C5.11941 15.4783 6.58603 15.9243 8.0991 15.9912C9.61218 16.0581 11.1168 15.7434 12.4572 15.0796C13.7977 14.4159 14.9254 13.4272 15.7236 12.2159C16.5219 11.0045 16.9617 9.61454 16.9976 8.18964C17.0335 6.76474 16.6642 5.35669 15.9278 4.11112C15.1915 2.86556 14.1149 1.82772 12.8093 1.10496C11.5038 0.382194 10.0167 0.000748913 8.502 7.97545e-05Z" fill="#008FCE"/>
</svg>
