<svg width="17" height="16" viewBox="0 0 17 16" fill="none" xmlns="http://www.w3.org/2000/svg">
<path d="M0.944444 8.88889H6.61111C7.13056 8.88889 7.55556 8.48889 7.55556 8V0.888889C7.55556 0.4 7.13056 0 6.61111 0H0.944444C0.425 0 0 0.4 0 0.888889V8C0 8.48889 0.425 8.88889 0.944444 8.88889ZM0.944444 16H6.61111C7.13056 16 7.55556 15.6 7.55556 15.1111V11.5556C7.55556 11.0667 7.13056 10.6667 6.61111 10.6667H0.944444C0.425 10.6667 0 11.0667 0 11.5556V15.1111C0 15.6 0.425 16 0.944444 16ZM10.3889 16H16.0556C16.575 16 17 15.6 17 15.1111V8C17 7.51111 16.575 7.11111 16.0556 7.11111H10.3889C9.86944 7.11111 9.44444 7.51111 9.44444 8V15.1111C9.44444 15.6 9.86944 16 10.3889 16ZM9.44444 0.888889V4.44444C9.44444 4.93333 9.86944 5.33333 10.3889 5.33333H16.0556C16.575 5.33333 17 4.93333 17 4.44444V0.888889C17 0.4 16.575 0 16.0556 0H10.3889C9.86944 0 9.44444 0.4 9.44444 0.888889Z" fill="#008FCE"/>
</svg>
