<svg xmlns="http://www.w3.org/2000/svg" width="10" height="13" viewBox="0 0 10 13" fill="none">
<path d="M3.65529 8.80738C4.55508 8.73197 5.45901 8.73197 6.35881 8.80738C6.84879 8.83709 7.33646 8.90084 7.81871 8.99822C8.86226 9.21797 9.54355 9.57651 9.83553 10.1548C10.0548 10.6061 10.0548 11.1434 9.83553 11.5948C9.54355 12.173 8.8893 12.5547 7.80789 12.7513C7.32602 12.8524 6.83825 12.9181 6.34799 12.948C5.8938 13 5.43961 13 4.98001 13H4.15274C3.97971 12.9769 3.81209 12.9653 3.64988 12.9653C3.15961 12.9391 2.67173 12.8753 2.18998 12.7745C1.14643 12.5663 0.465139 12.1962 0.173159 11.6179C0.0604445 11.3939 0.0010213 11.1436 6.51361e-05 10.8892C-0.00221519 10.6333 0.0554109 10.3808 0.167752 10.1548C0.454325 9.57651 1.13561 9.20062 2.18998 8.99822C2.67385 8.89944 3.1634 8.83569 3.65529 8.80738ZM5.00164 0C6.81428 0 8.28371 1.57158 8.28371 3.51023C8.28371 5.44888 6.81428 7.02046 5.00164 7.02046C3.189 7.02046 1.71957 5.44888 1.71957 3.51023C1.71957 1.57158 3.189 0 5.00164 0Z" fill="#008FCE"/>
</svg>