<svg width="16" height="21" viewBox="0 0 16 21" fill="none" xmlns="http://www.w3.org/2000/svg">
<path d="M5.84846 14.2273C7.28813 14.1055 8.73442 14.1055 10.1741 14.2273C10.9581 14.2753 11.7383 14.3783 12.5099 14.5356C14.1796 14.8906 15.2697 15.4698 15.7368 16.4039C16.0877 17.133 16.0877 18.0009 15.7368 18.73C15.2697 19.6641 14.2229 20.2807 12.4926 20.5983C11.7216 20.7616 10.9412 20.8677 10.1568 20.9159C9.43008 21 8.70338 21 7.96802 21H6.64438C6.36754 20.9626 6.09935 20.9439 5.83981 20.9439C5.05538 20.9016 4.27477 20.7986 3.50397 20.6357C1.83428 20.2994 0.744223 19.7015 0.277055 18.7673C0.0967112 18.4055 0.00163408 18.0012 0.000104218 17.5903C-0.00354431 17.1769 0.0886575 16.769 0.268404 16.4039C0.72692 15.4698 1.81698 14.8625 3.50397 14.5356C4.27816 14.376 5.06144 14.273 5.84846 14.2273ZM8.00263 0C10.9028 0 13.2539 2.53871 13.2539 5.67037C13.2539 8.80203 10.9028 11.3407 8.00263 11.3407C5.10241 11.3407 2.75131 8.80203 2.75131 5.67037C2.75131 2.53871 5.10241 0 8.00263 0Z" fill="#008FCE"/>
</svg>
