<svg width="100" height="100" viewBox="0 0 100 100" fill="none" xmlns="http://www.w3.org/2000/svg">
<circle cx="50" cy="50" r="47.5" fill="#008FCE" stroke="white" stroke-width="5"/>
<path d="M50 77C44.2644 77 38.6575 75.2992 33.8885 72.1126C29.1194 68.9261 25.4024 64.3969 23.2075 59.0978C21.0126 53.7988 20.4383 47.9678 21.5572 42.3424C22.6762 36.7169 25.4382 31.5496 29.4939 27.4939C33.5496 23.4382 38.7169 20.6762 44.3424 19.5572C49.9678 18.4383 55.7988 19.0126 61.0978 21.2075C66.3969 23.4024 70.9261 27.1194 74.1126 31.8885C77.2992 36.6575 79 42.2644 79 48C79 55.6913 75.9447 63.0675 70.5061 68.5061C65.0675 73.9447 57.6913 77 50 77ZM50 23.1429C45.0837 23.1429 40.2779 24.6007 36.1901 27.3321C32.1024 30.0634 28.9164 33.9455 27.035 38.4876C25.1536 43.0296 24.6614 48.0276 25.6205 52.8494C26.5796 57.6712 28.947 62.1003 32.4234 65.5767C35.8997 69.053 40.3288 71.4204 45.1506 72.3795C49.9724 73.3386 54.9704 72.8464 59.5124 70.965C64.0545 69.0836 67.9366 65.8976 70.668 61.8099C73.3993 57.7222 74.8571 52.9163 74.8571 48C74.8571 41.4075 72.2383 35.085 67.5767 30.4234C62.915 25.7617 56.5925 23.1429 50 23.1429ZM47.2243 57.8393L65.8671 41.2679L63.1329 38.1607L45.8572 53.4479L36.9707 44.4579L34.0293 47.3993L44.3864 57.7564C44.58 57.9484 44.8095 58.1003 45.0619 58.2034C45.3143 58.3065 45.5845 58.3587 45.8572 58.3571C46.3607 58.3564 46.8467 58.1723 47.2243 57.8393Z" fill="white"/>
</svg>
