<svg width="18" height="18" viewBox="0 0 18 18" fill="none" xmlns="http://www.w3.org/2000/svg">
<path d="M16.5133 2.09833H14.0669V1.48673C14.0669 1.32452 14.0024 1.16895 13.8877 1.05426C13.7731 0.939559 13.6175 0.875122 13.4553 0.875122C13.2931 0.875122 13.1375 0.939559 13.0228 1.05426C12.9081 1.16895 12.8437 1.32452 12.8437 1.48673V2.09833H4.28123V1.48673C4.28123 1.32452 4.21679 1.16895 4.10209 1.05426C3.98739 0.939559 3.83183 0.875122 3.66962 0.875122C3.50741 0.875122 3.35185 0.939559 3.23715 1.05426C3.12245 1.16895 3.05802 1.32452 3.05802 1.48673V2.09833H0.611604C0.449396 2.09833 0.293832 2.16277 0.179135 2.27746C0.0644366 2.39216 0 2.54773 0 2.70993V6.37955C0 6.54176 0.0644366 6.69733 0.179135 6.81202C0.293832 6.92672 0.449396 6.99116 0.611604 6.99116H1.22321V17.3884C1.22321 17.5506 1.28764 17.7062 1.40234 17.8209C1.51704 17.9356 1.6726 18 1.83481 18H15.2901C15.4523 18 15.6079 17.9356 15.7226 17.8209C15.8373 17.7062 15.9017 17.5506 15.9017 17.3884V6.99116H16.5133C16.6755 6.99116 16.8311 6.92672 16.9458 6.81202C17.0605 6.69733 17.1249 6.54176 17.1249 6.37955V2.70993C17.1249 2.54773 17.0605 2.39216 16.9458 2.27746C16.8311 2.16277 16.6755 2.09833 16.5133 2.09833ZM14.6785 16.7768H2.44641V6.99116H14.6785V16.7768Z" fill="#008FCE"/>
<path d="M11.0089 11.884C10.9284 11.8844 10.8486 11.869 10.7741 11.8386C10.6996 11.8081 10.6318 11.7633 10.5747 11.7066L9.35144 10.4834C9.29442 10.4264 9.24918 10.3587 9.21832 10.2842C9.18746 10.2097 9.17158 10.1298 9.17158 10.0492C9.17158 9.96852 9.18746 9.88867 9.21832 9.81416C9.24918 9.73965 9.29442 9.67195 9.35144 9.61493C9.40847 9.5579 9.47617 9.51267 9.55067 9.48181C9.62518 9.45094 9.70504 9.43506 9.78568 9.43506C9.86633 9.43506 9.94618 9.45094 10.0207 9.48181C10.0952 9.51267 10.1629 9.5579 10.2199 9.61493L10.9416 10.3427L12.3544 8.459C12.4517 8.32923 12.5966 8.24344 12.7572 8.2205C12.8367 8.20914 12.9177 8.21356 12.9955 8.23349C13.0733 8.25342 13.1464 8.28849 13.2107 8.33668C13.2749 8.38487 13.329 8.44524 13.37 8.51435C13.4109 8.58346 13.4378 8.65996 13.4492 8.73947C13.4605 8.81897 13.4561 8.89994 13.4362 8.97775C13.4162 9.05555 13.3812 9.12867 13.333 9.19292L11.4982 11.6393C11.4457 11.7098 11.3786 11.7681 11.3016 11.8103C11.2246 11.8525 11.1393 11.8777 11.0517 11.884H11.0089ZM6.72766 10.6608H4.89285C4.73065 10.6608 4.57508 10.5963 4.46038 10.4816C4.34569 10.3669 4.28125 10.2114 4.28125 10.0492C4.28125 9.88696 4.34569 9.73139 4.46038 9.6167C4.57508 9.502 4.73065 9.43756 4.89285 9.43756H6.72766C6.88987 9.43756 7.04544 9.502 7.16013 9.6167C7.27483 9.73139 7.33927 9.88696 7.33927 10.0492C7.33927 10.2114 7.27483 10.3669 7.16013 10.4816C7.04544 10.5963 6.88987 10.6608 6.72766 10.6608ZM6.72766 14.3304H4.89285C4.73065 14.3304 4.57508 14.266 4.46038 14.1513C4.34569 14.0366 4.28125 13.881 4.28125 13.7188C4.28125 13.5566 4.34569 13.401 4.46038 13.2863C4.57508 13.1716 4.73065 13.1072 4.89285 13.1072H6.72766C6.88987 13.1072 7.04544 13.1716 7.16013 13.2863C7.27483 13.401 7.33927 13.5566 7.33927 13.7188C7.33927 13.881 7.27483 14.0366 7.16013 14.1513C7.04544 14.266 6.88987 14.3304 6.72766 14.3304ZM12.2321 14.3304H10.3973C10.2351 14.3304 10.0795 14.266 9.96482 14.1513C9.85012 14.0366 9.78568 13.881 9.78568 13.7188C9.78568 13.5566 9.85012 13.401 9.96482 13.2863C10.0795 13.1716 10.2351 13.1072 10.3973 13.1072H12.2321C12.3943 13.1072 12.5499 13.1716 12.6646 13.2863C12.7793 13.401 12.8437 13.5566 12.8437 13.7188C12.8437 13.881 12.7793 14.0366 12.6646 14.1513C12.5499 14.266 12.3943 14.3304 12.2321 14.3304Z" fill="#008FCE"/>
</svg>
