<svg width="23" height="19" viewBox="0 0 23 19" fill="none" xmlns="http://www.w3.org/2000/svg">
<path d="M22.7287 12.2663C22.166 11.9333 21.4613 11.8795 20.8324 12.1585C20.8324 12.1585 20.83 12.161 20.8202 12.1634C20.8177 12.1659 20.8128 12.1659 20.8103 12.1683C20.8128 12.1683 20.8103 12.1683 20.803 12.1708L20.7981 12.1732L20.7957 12.1756C20.7859 12.1781 20.7761 12.183 20.7639 12.1879C20.5339 12.2907 19.6358 12.6897 16.5822 14.041V14.0361C15.8971 13.0643 14.6908 13.7815 13.0563 13.9235C10.5214 12.6236 8.12836 11.3507 5.50292 11.4314V16.6334H5.93846L11.39 18.7876C12.2807 19.1401 13.2912 19.0496 14.1085 18.5477L22.7336 13.2234C23.0884 13.0031 23.0909 12.4792 22.7287 12.2663ZM4.50366 10.7909H4.0661V10.4634C4.0661 10.2074 3.85875 10 3.6029 10H0.463192C0.207344 10 0 10.2074 0 10.4634V17.8861C0 18.1421 0.207344 18.3495 0.463192 18.3495H3.6029C3.85875 18.3495 4.0661 18.1421 4.0661 17.8861V17.5586H4.50366C4.78572 17.5586 5.01437 17.3298 5.01437 17.0476V11.3019C5.01441 11.0197 4.78572 10.7909 4.50366 10.7909ZM2.64918 17.6387C2.33438 17.6387 2.07651 17.3808 2.07651 17.0658C2.07651 16.7509 2.33438 16.4929 2.64918 16.4929C2.96394 16.4929 3.22181 16.7509 3.22181 17.0658C3.22181 17.3808 2.96394 17.6387 2.64918 17.6387Z" fill="#008FCE"/>
<path d="M9.44264 6.95732L10.405 7.06789C10.5204 7.56793 10.7177 8.04876 10.992 8.48152L10.3857 9.24121C10.2269 9.44314 10.2462 9.72682 10.4242 9.90471L11.0882 10.5682C11.2662 10.7461 11.5501 10.7654 11.7521 10.6067L12.5124 10.0009C12.9454 10.275 13.4265 10.4721 13.927 10.5874L14.0376 11.5491C14.113 12.2147 14.9874 11.9273 15.4667 11.9914C15.7217 11.9914 15.9334 11.8039 15.9623 11.5491L16.073 10.5874C16.5734 10.4721 17.0545 10.2749 17.4876 10.0008L18.2478 10.6067C18.4499 10.7653 18.7338 10.7461 18.9118 10.5682L19.5758 9.90471C19.7538 9.72682 19.7731 9.44314 19.6143 9.24117L19.008 8.48148C19.2823 8.04876 19.4796 7.56798 19.595 7.06793L20.5574 6.95732C20.8124 6.92851 21 6.71697 21 6.46206V5.5293C21 5.27448 20.8124 5.06295 20.5574 5.03404L19.595 4.92343C19.4796 4.42343 19.2823 3.94256 19.008 3.50989L19.6143 2.7502C19.7731 2.54827 19.7538 2.26459 19.5758 2.0867L18.9118 1.42319C18.7338 1.2453 18.4499 1.22604 18.2478 1.38473L17.4876 1.99051C17.0545 1.71644 16.5734 1.51933 16.073 1.40398L15.9623 0.442321C15.9334 0.187454 15.7217 0 15.4667 0H14.5333C14.2783 0 14.0665 0.187543 14.0376 0.442321L13.927 1.40398C13.4265 1.51933 12.9454 1.71644 12.5124 1.99051L11.7521 1.38473C11.5501 1.22609 11.2662 1.24534 11.0882 1.42324L10.4242 2.08674C10.2462 2.26463 10.2269 2.54827 10.3857 2.75024L10.992 3.50989C10.7177 3.94265 10.5204 4.42343 10.405 4.92352L9.44264 5.03413C9.18763 5.06295 9 5.27457 9 5.52939V6.46215C9 6.71697 9.18763 6.92851 9.44264 6.95732ZM13.4516 4.45331C14.3066 3.59899 15.6894 3.59899 16.5444 4.45331C17.3935 5.30188 17.3935 6.68944 16.5444 7.53805C15.6894 8.39238 14.3066 8.39238 13.4516 7.53805C12.5967 6.68949 12.5967 5.30188 13.4516 4.45331Z" fill="#008FCE"/>
</svg>
