<svg width="17" height="17" viewBox="0 0 17 17" fill="none" xmlns="http://www.w3.org/2000/svg">
<path d="M9.13697 0.000305333C9.62897 -0.00819451 10.095 0.160952 10.443 0.484797C10.7928 0.798441 10.9797 1.23278 10.9797 1.69177C10.9797 2.62676 11.7938 3.38409 12.8055 3.38409C13.1177 3.38409 13.4308 3.29825 13.709 3.15375C14.5758 2.71091 15.6582 2.99225 16.1502 3.78274L16.7594 4.77722C16.9114 5.03221 17 5.32121 17 5.6187C17 6.22219 16.652 6.78403 16.0885 7.08068C15.8103 7.22518 15.5777 7.44617 15.4176 7.70202C14.9426 8.50015 15.2386 9.51078 16.0885 9.97148C16.9463 10.4381 17.2415 11.4589 16.7594 12.2656L16.1502 13.2269C15.8282 13.7531 15.2288 14.0769 14.5847 14.0769C14.2627 14.0769 13.9407 13.9996 13.6732 13.8466C13.3861 13.7021 13.0739 13.6171 12.7599 13.6171C12.2768 13.6171 11.8117 13.7964 11.4726 14.1186C11.1229 14.4339 10.935 14.8665 10.935 15.317C10.935 16.2435 10.1219 17 9.11014 17H7.88551C7.40156 17 6.94534 16.813 6.61436 16.4985C6.27444 16.1755 6.09642 15.7505 6.09642 15.3085C6.09642 14.3735 5.29044 13.6171 4.2805 13.6171C3.94863 13.6171 3.62659 13.7021 3.34928 13.8644C2.92885 14.0846 2.4279 14.1441 1.96274 14.0336C1.49758 13.9146 1.09504 13.6256 0.853509 13.2431L0.281896 12.2826C0.0126388 11.8839 -0.06787 11.4071 0.0582605 10.9566C0.182602 10.5061 0.505532 10.1236 0.942963 9.89413C1.22117 9.74963 1.45285 9.53713 1.61387 9.27364C2.07993 8.47465 1.78383 7.47167 0.942963 7.00418C0.0931476 6.54519 -0.202051 5.53371 0.281896 4.73472L0.853509 3.78274C1.09504 3.38409 1.49758 3.09425 1.97169 2.97525C2.44669 2.85625 2.94674 2.9234 3.36717 3.15375C3.65343 3.29825 3.96652 3.37474 4.2805 3.37474C4.76355 3.37474 5.22782 3.19625 5.56775 2.88175C5.90767 2.56726 6.09642 2.13377 6.09642 1.69177C6.09642 0.756792 6.90956 0.000305333 7.92039 0.000305333H9.13697ZM9.49568 6.35904C8.55641 5.9927 7.47312 6.18819 6.74854 6.85968C6.03291 7.52267 5.80927 8.53415 6.20287 9.40199C6.58842 10.2766 7.49996 10.8461 8.51974 10.8461H8.52958C9.20049 10.8546 9.82667 10.609 10.2999 10.1661C10.774 9.73263 11.0423 9.13764 11.0423 8.51715C11.0513 7.57367 10.4341 6.71518 9.49568 6.35904Z" fill="#008FCE"/>
</svg>
