<svg id="Layer_1" viewBox="0 0 512 512" xmlns="http://www.w3.org/2000/svg" data-name="Layer 1" width="300" height="300" version="1.1" xmlns:xlink="http://www.w3.org/1999/xlink" xmlns:svgjs="http://svgjs.dev/svgjs"><g width="100%" height="100%" transform="matrix(1,0,0,1,0,0)"><path d="m265.92 111.718h17.965c3.894 15.903 13.65 29.53 26.853 38.431-18.097 5.004-34.627 13.707-48.342 25.675-25.639 22.373-39.196 54.061-39.208 91.638 0 2.122.842 4.158 2.343 5.658 1.5 1.501 3.535 2.344 5.657 2.344h231.732c4.417 0 7.999-3.581 8-7.998.011-37.763-13.358-69.502-38.662-91.785-13.741-12.1-30.411-20.848-48.714-25.79 1.209-.83 2.403-1.692 3.566-2.609.346-.273.655-.574.944-.889h10.88c5.485 0 9.955-4.38 10.123-9.824l11.448-.11c7.438-.071 13.487-6.155 13.487-13.562v-12.733c7.491-3.09 12.78-10.464 12.78-19.057v-16.614c0-11.365-9.246-20.611-20.611-20.611h-.037c-.146-.311-.306-.618-.496-.915-17.26-26.997-46.672-43.114-78.677-43.114-32.457 0-62.071 16.457-79.251 44.029h-1.78c-11.364 0-20.61 9.246-20.61 20.611v16.614c0 11.365 9.246 20.611 20.61 20.611zm127.735-.905h-31.844c-5.591 0-10.139 4.548-10.139 10.139v15.302c0 3.34 1.631 6.3 4.131 8.148-2.895.525-5.856.801-8.867.801-26.975 0-48.92-21.945-48.92-48.92s21.945-48.92 48.92-48.92 48.92 21.945 48.92 48.92c0 4.981-.746 9.85-2.201 14.529zm24.337 9.669-8.938.086c-.044-1.158-.279-2.266-.682-3.294.626-1.831 1.177-3.682 1.635-5.556h7.985zm-71.04-94.63c23.316 0 44.968 10.329 59.582 28.029h-10.501c-11.914-13.775-29.498-22.518-49.097-22.518s-37.184 8.742-49.097 22.518h-10.474c14.602-17.713 36.203-28.029 59.586-28.029zm-298.742 170.392 12.481 2.839c1.098 3.209 2.399 6.349 3.896 9.396l-6.821 10.836c-4.585 7.285-4.147 15.391 1.113 20.651l11.013 11.012c5.262 5.261 13.367 5.699 20.651 1.113l10.841-6.823c3.047 1.497 6.185 2.798 9.391 3.895l2.84 12.485c1.909 8.392 7.949 13.815 15.39 13.815h15.573c7.44 0 13.48-5.423 15.39-13.815l2.839-12.481c3.209-1.097 6.349-2.399 9.396-3.896l10.837 6.82c7.282 4.583 15.389 4.148 20.651-1.114l11.011-11.011c5.262-5.261 5.699-13.367 1.114-20.651l-6.824-10.841c1.497-3.047 2.798-6.185 3.895-9.391l12.486-2.839c8.392-1.909 13.814-7.95 13.814-15.39v-15.573c0-7.441-5.423-13.482-13.814-15.39l-12.481-2.838c-1.098-3.209-2.399-6.349-3.896-9.397l6.82-10.836c4.585-7.284 4.147-15.391-1.114-20.652l-11.011-11.011c-5.261-5.261-13.366-5.698-20.652-1.114l-10.841 6.823c-3.047-1.497-6.185-2.798-9.391-3.894l-2.84-12.486c-1.909-8.392-7.949-13.815-15.39-13.815h-15.573c-7.44 0-13.48 5.423-15.39 13.815l-2.84 12.485c-3.207 1.097-6.345 2.398-9.391 3.895l-10.841-6.823c-7.284-4.586-15.391-4.149-20.651 1.113l-11.013 11.011c-5.261 5.261-5.698 13.368-1.113 20.651l6.822 10.839c-1.497 3.048-2.799 6.187-3.896 9.393l-12.482 2.839c-8.394 1.908-13.816 7.949-13.816 15.39v15.573c0 7.44 5.423 13.481 13.815 15.39zm56.229-23.177c0-17.839 14.514-32.353 32.354-32.353s32.353 14.513 32.353 32.353-14.514 32.353-32.353 32.353-32.354-14.514-32.354-32.353zm391.069 136.849c-5.141-8.902-13.47-15.279-23.454-17.954-9.984-2.676-20.386-1.319-29.289 3.821l-114.718 66.232c.387-1.04.729-2.109 1.022-3.206 2.402-8.965 1.156-18.354-3.51-26.436-4.667-8.083-12.174-13.857-21.14-16.259l-113.583-30.435c-10.252-3.314-22.811-2.015-32.072 3.332l-78.739 45.46-6.418-11.117c-3.065-5.31-8.03-9.111-13.979-10.706-5.947-1.593-12.149-.785-17.459 2.281l-26.016 15.02c-10.989 6.345-14.769 20.448-8.423 31.439l73.803 127.833c3.065 5.31 8.03 9.111 13.98 10.706 1.993.534 4.014.798 6.021.798 3.982 0 7.908-1.041 11.438-3.08l26.015-15.02c10.99-6.345 14.769-20.449 8.424-31.438l-6.419-11.118 10.969-6.333c5.079-2.933 7.065-2.872 14.741-1.168l113.283 30.354c4.062 1.088 8.188 1.627 12.292 1.627 8.235 0 16.382-2.17 23.735-6.415l165.364-95.473c8.902-5.14 15.278-13.47 17.953-23.455s1.317-20.387-3.822-29.289zm-11.632 25.149c-1.569 5.856-5.298 10.736-10.499 13.739l-165.364 95.473c-7.315 4.223-15.799 5.357-23.887 3.189l-113.449-30.398c-.11-.029-.221-.057-.333-.082-9.318-2.073-16.188-2.992-26.383 2.893l-10.969 6.333-44.966-77.885 78.739-45.46c5.386-3.108 13.313-3.898 19.275-1.923.147.049.296.093.446.134l113.793 30.491c4.837 1.296 8.894 4.422 11.423 8.804 2.529 4.381 3.209 9.458 1.912 14.295-2.638 9.848-12.597 15.476-22.671 12.811l-85.566-22.656c-4.277-1.132-8.651 1.415-9.781 5.686-1.131 4.271 1.415 8.65 5.686 9.781l85.533 22.647c.007.002.013.005.02.006h.002l13.631 3.609c10.098 2.671 15.817.729 28.999-6.881l121.299-70.032c5.201-3.003 11.289-3.794 17.147-2.223 5.856 1.569 10.736 5.298 13.739 10.5s3.793 11.292 2.225 17.149z" fill="#388cff" fill-opacity="1" data-original-color="#000000ff" stroke="none" stroke-opacity="1"/></g></svg>